<svg xmlns="http://www.w3.org/2000/svg" viewBox="0 0 840 400"><filter id="b"><feGaussianBlur stdDeviation="12" /></filter><path fill="#a394a8" d="M0 0h840v397H0z"/><g filter="url(#b)" transform="translate(1.6 1.6) scale(3.28125)" fill-opacity=".5"><ellipse fill="#00000e" rx="1" ry="1" transform="matrix(78.20955 19.3549 -10.35012 41.8229 173.3 80.2)"/><ellipse fill="#fff9ff" rx="1" ry="1" transform="matrix(165.16116 -194.28533 47.46843 40.35271 51 30.4)"/><ellipse fill="#fff" rx="1" ry="1" transform="matrix(169.5946 16.2668 -1.67082 17.41966 134 8.6)"/><ellipse fill="#2e1543" rx="1" ry="1" transform="matrix(20.57445 -18.72131 22.62177 24.861 117.5 64.4)"/><ellipse fill="#fff" rx="1" ry="1" transform="matrix(36.72752 15.70687 -11.39188 26.63773 85 120)"/><ellipse fill="#280c41" cx="190" cy="65" rx="37" ry="37"/><path fill="#fffdff" d="M234 32h22v52h-22z"/><path fill="#f3e2f5" d="M129 0h45v42h-45z"/><path fill="#735969" d="M.5 22.7l34.8 3.7-1.8 16.9-34.8-3.7z"/><ellipse fill="#f9e9f3" rx="1" ry="1" transform="rotate(-139.8 113.6 -33.2) scale(56.62677 20.89501)"/><ellipse fill="#381c45" rx="1" ry="1" transform="rotate(15.2 -267.7 797.8) scale(111.33971 21.63205)"/><path fill="#5c4c6a" d="M271 114l-90.2 12.5L247.5 57l-38-6.9z"/><path fill="#969bb4" d="M139 37.7l7.3 18.8-31.4-2 71-30.7z"/><ellipse fill="#ecd7e2" rx="1" ry="1" transform="matrix(11.00216 110.22743 -26.82288 2.67728 66.8 88.8)"/><ellipse fill="#444363" rx="1" ry="1" transform="matrix(-31.45254 -7.49305 2.23479 -9.38065 195.3 39.7)"/><ellipse fill="#9686a0" rx="1" ry="1" transform="matrix(-3.63792 9.28287 -22.88714 -8.96937 144.8 116.4)"/><ellipse fill="#faeaf5" cx="131" cy="4" rx="94" ry="25"/><path fill="#75525f" d="M255 16.7l-17.4-7.8L249-16.7l17.4 7.8z"/><path fill="#48172a" d="M-25.6 33.2l.1-1L93.6 46.8l-.1 1z"/><ellipse fill="#d1bdc8" cx="23" cy="32" rx="144" ry="4"/><path fill="#292544" d="M-16 17.2L47 33l-7.4-2.6L-16 25z"/><ellipse fill="#f6e5f2" rx="1" ry="1" transform="matrix(-69.84081 8.5713 -1.94671 -15.86227 46 118.4)"/></g></svg>