<?xml version="1.0" encoding="utf-8"?>
<!-- Generator: Adobe Illustrator 23.0.1, SVG Export Plug-In . SVG Version: 6.00 Build 0)  -->
<svg version="1.1" id="Layer_1" xmlns="http://www.w3.org/2000/svg" xmlns:xlink="http://www.w3.org/1999/xlink" x="0px" y="0px"
	 viewBox="0 0 1030.8 728.9" style="enable-background:new 0 0 1030.8 728.9;" xml:space="preserve">
<style type="text/css">
	.st0{fill:#4B4B4D;}
	.st1{fill:#AD3335;}
</style>
<g>
	<path class="st0" d="M429.4,0c67.8,0,135.6-0.1,203.5,0c27,0.4,50.2,24.8,50.4,51.6c0.1,81.7,0.1,163.3,0,245
		c-0.2,26.5-22.9,50.7-49.5,51.6c-27.6,0.2-55.2,0-82.9,0.1c-13.8,0.1-27.4-5.8-36.9-15.7c-35.8-36.9-71.6-73.8-107.3-110.7
		c-17.5,3.1-36.3-6.2-43.8-22.4c-6.8-13.7-4.9-31.2,4.8-43.1c10.2-13.1,28.8-18.6,44.5-13.2c18.8,5.8,31,26.5,27.3,45.8
		c35.5,36.9,71.2,73.5,106.8,110.4c1.4,1.6,3.3,2.8,5.6,2.5c26.4-0.1,52.8,0.1,79.2-0.1c3.7,0.1,6-3.7,5.8-7.1
		c0-80.4,0-160.7,0-241.1c0.4-3.8-2.8-7.6-6.8-7.1c-52.3,0-104.7,0-157,0C458.4,31.1,443.9,15.6,429.4,0z"/>
	<path class="st0" d="M0,512.5c7.9,0,15.9,0,23.8,0c18.8,28.9,37.3,57.9,56.1,86.8c0.1-28.9,0-57.9,0.1-86.8c8.3,0,16.6,0,24.9,0
		c0,44,0,88.1,0,132.1c-8,0-15.9,0-23.9,0c-18.8-28.8-37.3-57.8-56.1-86.5c-0.1,28.8,0,57.7,0,86.5c-8.3,0-16.6,0-24.9,0
		C0,600.6,0,556.5,0,512.5z"/>
	<path class="st0" d="M135.6,584.6c15.1,0,30.1,0,45.1,0c0,7.6,0,15.2,0,22.8c-15.1,0-30.1,0-45.1,0
		C135.6,599.7,135.6,592.1,135.6,584.6z"/>
	<path class="st0" d="M187.2,679.8c8.6-2.3,18.5,0.4,24.3,7.2c9.2,9.9,8.2,27.3-2.2,36c-10.1,9.3-27.8,7.1-35.4-4.3
		C164,705.5,171,683.7,187.2,679.8 M188.4,684.4c-12,3.2-17.8,18.2-12.2,28.9c4.4,9.5,16.9,13.9,26.2,8.8c10.4-5,13.7-19.3,7.9-28.8
		C206,685.9,196.6,681.9,188.4,684.4z"/>
	<path class="st0" d="M509.5,682.1c11-6.1,25.2-2.9,33.8,5.9c-1.2,1.2-2.3,2.4-3.5,3.5c-8.4-9.2-24.4-11-33-1c-8.2,8.6-6,24,4,30.2
		c10.5,7.7,28.5,2.7,30.1-11.2c-5-0.1-9.9,0-14.8-0.1c0-1.5,0-3,0-4.5c6.6,0,13.3,0,19.9,0c0.1,8.4-3.7,17.4-11.6,21.3
		c-12.9,6.6-31.1,0.8-36-13.4C494.2,701.7,498.9,687.8,509.5,682.1z"/>
	<path class="st0" d="M677.4,683.1c11-7.4,26.5-4.4,35.5,4.9c-1.2,1.2-2.4,2.3-3.5,3.5c-5.7-5.5-13.9-9.3-22-7.3
		c-11,2.1-18.8,14.3-15.3,25.1c3.1,11.9,17.8,18.4,28.8,13.2c5.2-2.3,8.6-7.5,9.6-13c-5-0.1-9.9,0-14.8-0.1c0-1.5,0-3,0-4.5
		c6.6,0,13.3-0.1,19.9,0.1c-0.2,7.8-3.2,16.1-10.1,20.3c-11,6.6-27.1,4-34.5-6.8C662.9,707.7,665.9,690.4,677.4,683.1z"/>
	<path class="st0" d="M2.6,680.2c8.8,0,17.6,0,26.3,0c0,1.5,0,3.1,0,4.6c-7.3,0.1-14.5,0-21.8,0c0,4.9,0,9.9,0,14.8
		c7.2,0.1,14.4,0,21.6,0.1c0,1.5,0,3,0,4.6c-7.2,0.1-14.4,0-21.6,0c0,6.2,0,12.4,0,18.6c7.2,0.1,14.4,0,21.6,0c0,1.5,0,3.1,0,4.6
		c-8.7,0.1-17.5,0-26.2,0C2.6,711.8,2.5,696,2.6,680.2z"/>
	<path class="st0" d="M47.4,727.6c2.3-16,4.1-32,6.8-48c6.7,13,12.7,26.3,19.2,39.4c6.5-13,12.3-26.4,19-39.3
		c2.6,15.9,4.6,32,6.8,48c-1.5,0-3-0.1-4.5-0.1c-1.5-11.3-3-22.6-4.5-33.8c-5.8,11.4-10.7,23.3-17,34.5c-6-11.4-11.1-23.1-16.9-34.6
		c-1.6,11.3-3,22.7-4.5,34C50.3,727.6,48.8,727.6,47.4,727.6z"/>
	<path class="st0" d="M120.9,680.2c7.1,0.2,14.5-0.8,21.4,1.2c8.8,3.1,10,16.9,2.1,21.7c-5.7,3.3-12.6,2.1-18.9,2.5
		c-0.1,7.3,0,14.7,0,22c-1.5,0-3,0-4.6,0C120.8,711.8,120.8,696,120.9,680.2 M125.5,684.8c0,5.4-0.1,10.8,0.1,16.1
		c5-0.1,10.2,0.7,14.9-1c5.9-2.5,5.7-12.3-0.4-14.4C135.4,684.3,130.3,684.9,125.5,684.8z"/>
	<path class="st0" d="M237,680.2c1.6,0,3.1,0,4.7,0.1c3.1,11.3,6.1,22.7,9.4,34c4.7-11.5,8.6-23.3,13.7-34.6
		c4.8,11.5,8.8,23.2,13.5,34.7c3.3-11.3,6.3-22.7,9.6-34c1.5,0,3.1,0,4.6,0c-4.4,15.9-8.8,31.9-13.4,47.8
		c-5.7-11.6-9.4-24.2-14.3-36.2c-4.9,12.1-9.2,24.4-14.4,36.4C245.5,712.4,241.5,696.2,237,680.2z"/>
	<path class="st0" d="M313.7,680.2c8.8,0,17.6,0,26.4,0c0,1.5,0,3.1,0,4.6c-7.3,0.1-14.5,0-21.8,0.1c0,4.9,0,9.8,0,14.8
		c7.2,0.1,14.4,0,21.6,0.1c0,1.5,0,3,0,4.6c-7.2,0.1-14.4-0.1-21.6,0.1c0,6.1,0,12.3,0,18.4c7.2,0.4,14.4,0,21.6,0.2
		c0,1.5,0,3.1,0.1,4.6c-8.7,0.1-17.5,0-26.2,0C313.7,711.8,313.7,696,313.7,680.2z"/>
	<path class="st0" d="M360.8,680.2c7.1,0.2,14.5-0.8,21.4,1.2c8.3,3,9.8,15.3,3.3,20.8c-3.2,2.9-7.7,3-11.7,3.5
		c5.4,7.3,11,14.5,16.4,21.9c-2.3-0.3-5.4,0.9-6.8-1.5c-5.2-6.9-10.2-13.8-15.5-20.6c-0.6,0-1.9,0-2.5,0c-0.1,7.3,0,14.7,0,22
		c-1.5,0-3,0-4.5,0C360.8,711.8,360.8,696,360.8,680.2 M365.4,684.9c0,5.4-0.1,10.7,0,16.1c5-0.1,10.2,0.7,15-1
		c5.9-2.5,5.7-12.2-0.4-14.3C375.3,684.3,370.3,685,365.4,684.9z"/>
	<path class="st0" d="M411.3,727.6c0-15.8-0.1-31.6,0.1-47.4c1.5,0,3,0,4.5,0c0,15.8,0,31.6,0,47.4
		C414.4,727.6,412.8,727.6,411.3,727.6z"/>
	<path class="st0" d="M439.1,679.7c10.9,11.8,20.8,24.6,31.4,36.7c0.1-12.1,0-24.1,0.1-36.2c1.5,0,3,0,4.5,0c0,16,0.2,32-0.1,48
		c-10.9-11.7-20.7-24.4-31.2-36.3c-0.1,11.9,0,23.8-0.1,35.7c-1.6,0-3.1,0-4.7,0C439,711.6,438.8,695.7,439.1,679.7z"/>
	<path class="st0" d="M585.1,680.2c1.5,0,3.1,0,4.6,0c0,6.6,0,13.2,0,19.8c7.8,0,15.6,0,23.4,0c0.1-6.6,0-13.2,0-19.9
		c1.5,0,3.1,0,4.6,0c0,15.8,0,31.6,0,47.4c-1.5,0-3.1,0-4.6,0c-0.1-7.6,0-15.2,0-22.9c-7.8,0-15.6,0-23.4,0c-0.1,7.6,0,15.2,0,22.9
		c-1.5,0-3.1,0-4.6,0C585,711.8,585,696,585.1,680.2z"/>
	<path class="st0" d="M640.8,680.2c1.5,0,3,0,4.5,0c0,15.8,0,31.6,0,47.4c-1.5,0-3,0-4.5,0C640.7,711.8,640.7,696,640.8,680.2z"/>
	<path class="st0" d="M736.8,680.2c1.5,0,3,0,4.6,0c0.1,6.6,0,13.2,0.1,19.9c7.8,0,15.6,0,23.4,0c0-6.6,0-13.2,0-19.8
		c1.5,0,3,0,4.6,0c0.1,15.8,0,31.6,0,47.4c-1.5,0-3.1,0-4.6,0c-0.1-7.6,0-15.2,0-22.9c-7.8,0-15.6,0-23.4,0c0,7.6,0,15.2,0,22.9
		c-1.5,0-3.1,0-4.6,0C736.7,711.8,736.7,696,736.8,680.2z"/>
	<path class="st0" d="M793.2,680.2c8.8-0.1,17.5,0,26.3,0c0,1.5,0,3.1,0.1,4.6c-7.3,0.2-14.5,0-21.8,0.1c-0.1,4.9,0,9.8,0,14.8
		c7.2,0.1,14.4,0,21.6,0c-0.1,1.6-0.1,3.1-0.2,4.7c-7.1-0.1-14.3-0.1-21.4,0c0,6.2,0,12.4,0,18.6c7.2,0.1,14.4-0.1,21.6,0.1
		c0,1.5-0.1,3-0.1,4.6c-8.7,0-17.4,0-26.2,0C793.2,711.8,793.2,696,793.2,680.2z"/>
	<path class="st0" d="M840.3,727.6c0.1-15.8-0.2-31.6,0.1-47.5c7.1,0.4,14.6-0.8,21.5,1.4c8.3,3.1,9.6,15.6,2.9,21
		c-3.2,2.7-7.6,2.8-11.5,3.2c5.4,7.3,11,14.6,16.4,21.9c-1.9,0-3.8,0-5.6,0c-5.5-7.3-11-14.6-16.5-21.9c-0.7,0-2-0.1-2.7-0.2
		c-0.1,7.4,0,14.8-0.1,22.1C843.3,727.6,841.8,727.6,840.3,727.6 M844.9,684.9c-0.1,5.4-0.1,10.7,0,16.1c5.1-0.1,10.5,0.8,15.3-1.1
		c5.5-2.7,5.3-11.8-0.4-14.1C855,684.2,849.9,685,844.9,684.9z"/>
	<path class="st0" d="M925.3,680.7c8.3-1.3,17.5-0.1,26.1-0.6c0.1,1.5,0.1,3.1,0.2,4.7c-7.3,0.1-14.6,0-21.8,0.1
		c-0.1,4.9,0,9.9,0,14.8c7.2,0.1,14.4,0,21.5,0c0,1.5,0.1,3,0.1,4.5c-7.2,0.3-14.5,0-21.7,0.2c0,6.2,0,12.4,0,18.6
		c7.2,0.1,14.4-0.1,21.6,0.1c0,1.5-0.1,3-0.1,4.6c-8.7,0-17.5,0-26.2,0C925.3,712,925.1,696.3,925.3,680.7z"/>
	<path class="st0" d="M972.1,680.2c8.4,0.2,17.2-0.9,25.3,2c17.1,6.7,18.2,34.7,2.1,43.1c-8.6,3.7-18.3,1.8-27.4,2.3
		C972.1,711.8,972.1,696,972.1,680.2 M976.5,684.8c-0.1,12.8,0,25.6,0,38.3c6.7-0.2,13.8,0.7,20.2-1.9c13.4-6.2,12.5-29-1.1-34.5
		C989.6,684.4,982.9,684.9,976.5,684.8z"/>
	<path class="st0" d="M887.9,707.9c5.7,0,11.5-0.1,17.2,0c0,1.3-0.1,2.6-0.1,3.9c-5.7,0-11.4,0-17.1,0
		C887.9,710.4,887.9,709.1,887.9,707.9z"/>
</g>
<g>
	<path class="st1" d="M268.9,45.6c6.7-23.8,29.1-42.5,54.1-43.3c19.3-0.2,38.6,0,58-0.1c15.4-0.1,30.6,6.2,41.4,17.1
		c45.2,46.5,90.3,93.3,135.6,139.8c15.4-1.4,31.1,6.5,38.8,19.9c9,14.7,7,35-4.7,47.7c-11.5,13.2-31.8,17.3-47.5,9.7
		c-17.4-7.8-27.1-28.7-22-47C478.7,143.9,434.7,98.8,391,53.6c-2.4-2.6-5.5-4.9-9.1-4.8c-18.7-0.1-37.4,0-56,0
		c-7.6-0.2-13.6,7.6-13,14.9c0.2,89.4,0.4,178.7,0.6,268.1c10.2-16.6,28.9-27.8,48.5-28.1c30.7-0.1,61.4,0,92.1,0
		c1.4-0.2,2.6,0.3,3.5,1.4c13.8,15,27.8,29.9,41.6,44.9c-45.3,0.4-90.7,0-136,0.2c-4.6-0.1-8.8,3-10.7,7.1
		c-12.1,25.8-27.9,49.5-41.7,74.4c-4.5,8.4-14.5,13.3-23.9,11.7c-10.6-1.4-19.4-11.1-19.6-21.8c-0.2-114.9-0.5-229.9-0.8-344.8
		C266.6,66.3,265.8,55.7,268.9,45.6z"/>
	<path class="st1" d="M366.2,509.8c23.9-3.8,48.7,7.1,63,26.4c11.8,14.9,16,34.9,13.3,53.5c-3.5,27.6-25.9,51.8-53.3,57
		c-27.1,5.8-56.7-6.4-71.1-30.3c-13.3-20.5-14.4-48.1-3.3-69.8C324.6,526.9,344.5,512.7,366.2,509.8 M367.4,534.4
		c-16.5,2.6-30.2,16.4-33.7,32.6c-2.1,9.8-1.8,20.4,1.9,29.8c6.8,17.3,25.9,28.7,44.4,26.5c23.1-1.8,40.7-25.1,38.3-47.7
		C417.9,550.4,392.5,528.8,367.4,534.4z"/>
	<path class="st1" d="M211.5,512.5c18.6,0.6,37.8-2,55.9,3.5c23.2,8.2,28.6,41.8,13.3,59.5c-10.8,13-28.9,13.5-44.4,13.3
		c0,18.6,0,37.3,0,55.9c-8.3,0-16.6,0-24.9,0C211.4,600.6,211.4,556.5,211.5,512.5 M236.4,564.1c7.2-0.2,14.6,0.7,21.5-1.6
		c9.5-3.7,9.7-19.2,0.5-23.3c-7-2.9-14.7-2-22-2.2C236.3,546.1,236.3,555.1,236.4,564.1z"/>
	<path class="st1" d="M457,512.5c8.2,0,16.4-0.1,24.5,0c6.3,28,12.5,56.1,18.9,84.1c8-28,15.5-56.1,23.5-84.2c6.9,0,13.8,0,20.7,0
		c7.9,28.1,15.7,56.2,23.7,84.3c6.3-28.1,12.4-56.2,18.7-84.3c8.2,0,16.3,0,24.5,0c-9.8,44-19.6,88.1-29.4,132.1c-8,0-15.9,0-23.9,0
		c-8.1-28.4-16-56.9-24.1-85.3c-8,28.4-15.8,56.8-23.6,85.2c-7.9,0.1-15.8,0.1-23.8,0C476.8,600.5,466.9,556.5,457,512.5z"/>
	<path class="st1" d="M631.3,512.5c23.8-0.1,47.6,0,71.4,0c0,8.2,0,16.4,0,24.6c-15.6,0.1-31.1,0-46.7,0c0,8,0,15.9,0,23.9
		c15.6,0,31.1,0,46.7,0c0,8.1,0,16.1,0,24.2c-15.6,0-31.1,0-46.7,0c0,11.6,0,23.2,0,34.8c15.6,0.1,31.1,0,46.7,0
		c0,8.2,0,16.5,0,24.7c-23.8,0-47.6,0-71.4,0C631.3,600.6,631.3,556.5,631.3,512.5z"/>
	<path class="st1" d="M727.8,512.5c18.6,0.6,37.7-1.9,55.8,3.3c21.3,7.5,27.5,36.1,17.2,54.6c-4.3,7.6-12,12.4-20,15.5
		c10.2,19.6,20.6,39.1,30.9,58.7c-9.1,0-18.2,0.1-27.3-0.1c-9.4-18-18.9-36-28.3-54c-0.5-1.5-1.8-2.2-3.3-2.2
		c-0.1,18.7,0,37.5,0,56.2c-8.3,0-16.6,0-24.9,0C727.8,600.6,727.8,556.5,727.8,512.5 M752.7,537.1c0,9,0,18,0,27
		c7.5-0.1,15.3,0.7,22.4-2.1c9.3-4.1,8.1-19.8-1.2-23.2C767.1,536.5,759.8,537.2,752.7,537.1z"/>
	<path class="st1" d="M832.1,512.5c23.8,0,47.6-0.1,71.4,0c0,8.2,0.1,16.4,0,24.6c-15.6,0-31.1,0-46.7,0c-0.1,8,0,15.9,0,23.9
		c15.6,0.1,31.1,0,46.7,0c0,8,0,16.1,0,24.1c-15.6,0.1-31.1,0-46.7,0c0,11.6,0,23.2,0,34.8c15.6,0.1,31.1,0,46.7,0
		c0,8.2,0,16.4,0,24.6c-23.8,0.1-47.6,0-71.4,0C832.1,600.6,832,556.5,832.1,512.5z"/>
	<path class="st1" d="M927,512.5c21.1,0.5,42.6-1.8,63.2,3.8c19.4,5.3,32.8,23.3,37.9,42c4.9,19.3,3.7,40.8-6.1,58.4
		c-7.6,13.7-21.2,24.5-37,26.4c-19.2,2.5-38.6,1.3-57.9,1.5C926.9,600.6,926.9,556.5,927,512.5 M951.8,536.7c0,27.8,0,55.5,0,83.3
		c12-0.2,24.6,1.1,35.9-3.8c12.2-6.2,17.6-20.7,17.8-33.7c0.8-14-3.2-29.8-15.2-38.4C979.1,536.4,964.8,536.6,951.8,536.7z"/>
</g>
</svg>
