<?xml version="1.0" encoding="utf-8"?>
<!-- Generator: Adobe Illustrator 22.1.0, SVG Export Plug-In . SVG Version: 6.00 Build 0)  -->
<svg version="1.1" id="Layer_1" xmlns="http://www.w3.org/2000/svg" xmlns:xlink="http://www.w3.org/1999/xlink" x="0px" y="0px"
	 viewBox="0 0 957.1 1127.8" style="enable-background:new 0 0 957.1 1127.8;" xml:space="preserve">
<style type="text/css">
	.st0{fill:#C6C6C6;}
	.st1{fill:#C5C5C5;}
</style>
<g>
	<g>
		<path class="st0" d="M957.1,215.8c-9.3-0.7-15.8-5.7-18.4-14.3c-2.4-7.7,0.2-15.1,6.6-20c3.2-2.5,7.8-3.2,11.8-4.7
			C957.1,189.8,957.1,202.8,957.1,215.8z"/>
		<path class="st0" d="M383,193.7c0.8,16-6.7,28-19.1,36.9c-6.8,4.9-14.6,8.6-22.4,11.6c-6.4,2.4-10,6.6-12.9,12.3
			c-0.9,1.9-2.1,3.8-3.7,5.1c-9.2,7.1-18.5,14.1-27.9,21c-4.6,3.4-6.5,2.6-6.9-3c-0.3-4.1-2-6.9-5.8-8.6
			c-10.1-4.7-14.9-3.8-22.8,3.8c-4.3,4.2-8.9,8-13.1,12.3c-6.7,6.8-6.4,17.5,0.8,23.7c1.4,1.2,4,1,6,1.5c1.5,0.4,3.4,0.5,4.2,1.5
			c0.5,0.6-0.1,3-1,3.9c-3.6,3.9-7.3,7.8-11.4,11.2c-1.4,1.2-4.3,2-5.8,1.4c-1.2-0.5-1.8-3.6-1.6-5.5c0.7-7.3-1.1-14.1-3.7-20.9
			c-4.2-11-8-22.2-12.2-33.2c-1.9-5.1-4.2-10.1-6.7-14.9c-2.3-4.5-6.4-5.5-11.6-3.1c-2.8,1.3-6,3.9-8.3,0.5c-0.7-1,2.1-4.9,4-6.9
			c3.3-3.5,7-6.6,10.6-9.8c4.1-3.6,8.8-4.4,14-2.7c12,3.8,24.1,7.7,36.2,11.2c8.6,2.5,17.3,4.6,26,7c5.8,1.6,11.5,3.5,17.3,4.7
			c4,0.8,8.3,1.2,12.3,1c5.9-0.4,7.3-4,3.8-8.8c-2.2-3.1-4.7-6.1-6.5-9.5c-0.9-1.6-0.3-4-0.4-6.1c1.7,0,3.5-0.3,5.1,0.1
			c19,4.6,34.5-1.7,47.2-15.5c3-3.3,4.7-8.4,5.6-13c1.5-7.1-4-11.9-11.4-11.1c-11.5,1.3-20.7,7.7-30.6,12.8
			c-9.5,4.9-19.6,5.2-29,0.1c-5.4-3-7.9-8.7-8.4-15.1c-1.4-21.8,10.9-35.4,28-45.8c5.1-3.1,10.4-5.9,15.7-8.7
			c1.2-0.7,3.5-1.4,4.1-0.9c4.5,4,9.1,8.1,12.9,12.8c1.6,2-1.3,3.8-5.2,3.4c-4.2-0.5-8.9-1.8-12.6-0.6c-8.1,2.7-16.1,6.2-23.4,10.6
			c-5.6,3.4-7.9,9.8-8.2,16.4c-0.3,5.9,8.7,11.5,15,8.9c8.4-3.5,16.4-8.2,24.8-11.5c6.4-2.5,13.3-4.6,20.1-5.3
			c9.6-1,17.9,7,18.7,16.7C383.2,188.3,383,191,383,193.7z M230.8,252.9c-0.7,1.6-2.5,3.6-2,4.8c2.3,6.9,4.9,13.7,7.8,20.3
			c1.4,3.1,4.1,3.1,6.6,0.9c4.1-3.6,8.2-7.2,12.1-11.1c3.2-3.2,3-6.4-1-7.9C247,257.2,239.4,255.5,230.8,252.9z"/>
		<path class="st0" d="M25.1,748.7c1.1-6.8,1.5-17,4.5-26.2c5.9-17.9,25.2-23.9,41.1-13.9c6.3,4,8.5,10.9,11.3,17.2
			c2.2,5,2.9,5.5,6.7,1.7c10.2-10.1,20.1-20.4,24.9-34.5c0.4-1.3,2.3-2.1,3.5-3.2c0.8,1.1,2.3,2.2,2.4,3.5
			c0.6,7.1,1.3,14.3,1.1,21.4c-0.3,9.1-7.7,14.4-13,20.7c-4.9,5.9-10.5,11.2-15.6,16.8c-1.5,1.7-3.2,3.7-3.6,5.8
			c-0.6,3.4-1.6,7.9,0,10.3c1.2,1.9,6.1,1.5,9.4,1.7c2.6,0.2,5.3-0.2,8-0.5c4.9-0.6,9.9-0.4,13.6-4.9c2.3-2.9,4.8-1.8,5.4,2
			c1.2,7.7,2.2,15.5,3.1,23.2c0.2,1.6-0.1,3.4-0.7,4.9c-0.9,2.4-2.9,3.6-5,1.3c-4.1-4.6-9.5-4.4-14.8-4.3c-11.5,0.1-23,0.5-34.4,0.9
			c-8,0.3-15.9,0.6-23.9,1.1c-4.8,0.3-9,1.8-11.6,6.5c-1,1.8-3.2,2.9-4.9,4.3c-1.2-2.1-3.2-4-3.4-6.2
			C27.8,783.1,26.6,767.5,25.1,748.7z M56.4,726.7c-14.2,0-23.9,11.1-22,25.2c0.4,3.1,0.6,6.3,0.6,9.4c0.1,8.9,3,11.6,11.9,11.2
			c7-0.3,13.9-0.6,20.9-0.8c6-0.2,9.7-2.4,9.8-8.3c0.1-7.8-0.7-15.8-2.6-23.4C72.4,729.9,67.1,726.7,56.4,726.7z"/>
		<path class="st1" d="M108.6,479.3c-4,0.4-5.7,4.5-7.2,8.6c-3,8.2-5.6,16.7-8.6,24.9c-2.9,7.8-1.9,10.9,5.7,14.1
			c6.1,2.6,12.2,5.4,18.6,7.1c2.4,0.6,5.6-1.6,8.4-2.6c1.5-0.5,2.9-1.1,4.3-1.7c0.4,1.5,1.4,3.3,1.1,4.6c-2.4,8.6-4.7,17.3-7.9,25.7
			c-2.1,5.6-4.3,5.1-8.4,0.8c-2.9-3-6.7-5.4-10.6-6.9c-12.6-4.7-25.3-8.9-38-13.3c-3.5-1.2-7-2.2-10.3-3.6c-4.3-1.9-7.4-0.7-10,2.8
			c-0.6,0.8-1.1,1.9-1.9,2.3c-1.2,0.6-2.8,1.1-3.9,0.8c-0.6-0.2-1.3-2.4-1-3.4c3.3-11.3,6.8-22.5,10.4-33.7c0.5-1.4,2.4-2.4,3.7-3.5
			c0.9,1.3,2.3,2.4,2.8,3.8c2.2,6.8,8.6,8.1,14,10.2c9.9,3.8,13,2.3,16.4-7.9c3.3-9.9,6.1-20,9.3-29.9c1.5-4.8-1-7.3-4.7-9.1
			c-4.2-2-8.4-4.3-12.8-5.5c-2.7-0.7-5.9,0.6-8.9,0.8c-1.4,0.1-3.1,0.3-4.1-0.3c-0.7-0.4-0.9-2.5-0.5-3.6c3-8.1,5.9-16.2,9.4-24.1
			c2.2-4.9,3.7-4.4,6.8-0.4c2.5,3.1,5.7,6.2,9.3,7.8c16.2,7.4,32.5,14.3,49,21.1c2.8,1.2,6.4,0.5,9.7,0.8c1.4,0.1,3.3-0.2,4.1,0.6
			c0.7,0.7,0.5,2.8,0,4c-2.4,6.7-4.8,13.4-7.4,20.1c-2,5.2-4.4,5.7-8.3,1.9C131.8,487.5,115.4,479.5,108.6,479.3z"/>
		<path class="st1" d="M656,132.5c-3.8,0-7.7,0.3-11.5-0.1c-1.7-0.2-3.4-1.8-4.6-3.2c-0.3-0.3,1.6-2.4,2.2-3.7
			c1.7-3.7,4.1-7.3,4.8-11.1c1.9-11.6,3.3-23.3,4.7-35c0.8-6.8,1.5-13.6,1.2-20.4c-0.1-2.8-3.2-5.3-4.9-8.1
			c-0.8-1.3-1.4-2.7-2.1-4.1c1.3-0.6,2.6-1.8,3.9-1.8c12.1,0.4,24.2,0.9,36.3,1.6c5.6,0.4,11.2,1.2,16.7,2.3
			c9.9,2.1,19.2,5.5,25.7,14c10.2,13.3,3.3,32.7-13.1,36.7c-11.8,2.9-11.7,2.9-4.7,12.3c6.4,8.6,13.3,16.7,23.1,21.6
			c1.1,0.6,1.7,2.2,2.5,3.4c-1.2,0.6-2.5,1.7-3.7,1.8c-14,0.6-26.3-2.3-34.6-15.2c-4.2-6.5-9.5-12.4-14.5-18.4
			c-1.6-1.9-3.7-3.5-5.8-4.6c-5.3-2.6-9-0.4-9.6,5.4c-0.5,4.6-1.5,9.3-1.4,13.9c0.1,2.9,1.3,6,2.7,8.7c1.4,2.9,0.8,4.1-2.2,4.2
			c-3.7,0.1-7.3,0-11,0C656,132.6,656,132.6,656,132.5z M688.2,94.8c0.1-0.4,0.2-0.8,0.3-1.1c2.7,0,5.3,0.2,8,0
			c5.6-0.4,10.2-2.8,13.3-7.7c7.8-12.4-0.1-27.6-12.2-30c-5.2-1-10.6-1-15.8-1.8c-4.8-0.7-7.6,1.5-8.3,5.8
			c-1.4,8.2-2.4,16.4-2.9,24.7c-0.1,2.1,1.8,5.5,3.6,6.3C678.6,92.9,683.5,93.6,688.2,94.8z"/>
		<path class="st0" d="M572.6,150.7c12.7-3.2,28.6-4.2,39.4-17.4c1.3-1.5,2.7-3,4.3-4.2c0.8-0.7,2.2-1.4,2.9-1.1
			c0.8,0.3,1.6,2,1.4,2.8c-1.3,6-2.4,12.1-4.6,17.8c-0.8,2.1-4,4.4-6.4,4.8c-19.7,3.3-39.4,6.2-59.1,9.3c-4.4,0.7-8.8,2.1-13.2,2.7
			c-1.4,0.2-3-0.9-4.4-1.3c0.5-1.3,0.9-2.6,1.4-4c1-3.1,3-6.3,2.7-9.3c-1.3-14.9-3.2-29.7-4.9-44.6c-0.6-5.3-1.5-10.5-1.7-15.8
			c-0.2-5.5-2.6-9-7.7-11.1c-1.4-0.6-2.5-1.9-3.7-2.8c1.2-1.2,2.2-2.9,3.7-3.5c14.7-6,30.2-7.7,45.8-9.3c5.9-0.6,11.8-1.9,17.7-2.6
			c6.4-0.8,12.5-0.1,16.5,5.7c1.2,1.8,1.3,4.4,2,6.6c-2.2,0.3-4.6,1.4-6.5,0.8c-11.1-3.4-22.4-3.1-33.6-1.4c-3.4,0.5-6.7,2-9.7,3.6
			c-1.5,0.8-3.3,3.1-3.2,4.6c0.5,5.4,1.5,10.8,2.7,16.1c0.2,1,1.9,2.2,3,2.3c9,0.6,18.1,1.4,24.4-7.4c2.8-3.9,5.4-3.8,6.9,0.5
			c1.9,5.4,2.9,11.2,3.4,16.9c0.3,3.6-2.6,4.8-5.9,3.8c-2.2-0.7-4.3-1.8-6.3-2.9c-6.3-3.6-13-2.9-19.4-0.9c-1.9,0.6-4,4.8-3.9,7.1
			c0.7,9.4,2,18.8,3.6,28.2C560.8,150,562.8,150.8,572.6,150.7z"/>
		<path class="st1" d="M116.9,1053.1c1-4.8,1.7-9.2,2.8-13.5c3.5-14.2,7.2-28.3,10.7-42.5c1.5-6.1,3.1-12.2,4.2-18.4
			c0.3-1.8-0.4-4.8-1.6-5.7c-1.3-0.9-4.4-0.7-5.9,0.2c-9.9,6-19.9,12.2-29.4,18.9c-2.7,1.9-4.2,5.7-5.7,8.8
			c-1.4,2.8-3.4,3.5-4.8,1.1c-3.3-5.7-6.1-11.8-8.8-17.8c-0.4-0.8,0.5-2.8,1.4-3.3c0.8-0.4,2.7,0,3.4,0.8c3.4,3.7,6.6,3.3,10.6,0.8
			c17.1-10.6,34.3-21.1,51.5-31.5c2.6-1.5,5.3-2.9,8-4c5.9-2.5,9.3,0.1,8.2,6.5c-1.2,7-2.8,14-4.6,20.9c-4.4,17-9.2,34-13.2,51.1
			c-0.9,3.9,0.4,8.3,0.7,12.5c3.2-1.4,6.7-2.3,9.6-4.1c8.7-5.5,17.2-11.4,25.8-17c4.4-2.9,6.6-6.8,7.2-11.9c0.1-1.3,1.3-2.4,1.9-3.6
			c1.2,0.8,2.7,1.3,3.5,2.4c3,4.6,5.9,9.3,8.6,14.1c0.7,1.3,0.8,3.3,0.2,4.6c-0.3,0.7-2.6,1-3.9,0.7c-6.3-1.2-11.8,0.8-17,4.2
			c-11.1,7.3-22.2,14.7-33.5,21.6c-8.6,5.3-13,12.4-12.9,22.6c0,1.9-1.2,3.8-1.9,5.7c-1.6-1.2-3.7-2.1-4.7-3.7
			c-3.2-4.8-6.1-9.9-8.9-15C117.6,1056.8,117.3,1054.7,116.9,1053.1z"/>
		<path class="st1" d="M385.8,130.5c1-6.8,5.2-10.4,10.3-12.5c15.1-6.1,30.3-12,45.6-17.5c11.3-4.1,22.8-7.3,34.2-11
			c4.5-1.5,7.5,1.1,10,3.9c2.8,3.1,7.2,6.8,4.5,11c-1.1,1.7-7.4,1-10.8-0.1c-7.6-2.3-14.8-1.7-22.1,0.6c-5.1,1.6-5.6,3.7-4.1,8.7
			c3.7,11.9,7,23.9,10.5,35.9c3.2,10.7,6.4,21.3,9.7,31.9c1.1,3.7,4,4.3,7.5,4.6c1.8,0.1,3.4,1.4,5.1,2.2c-1.4,1.3-2.5,3.3-4.1,3.9
			c-8.8,3.5-17.7,6.8-26.7,10c-3.2,1.1-7,0.8-6-3.6c2.2-9.9-1.3-18.8-3.9-27.8c-4.5-15.7-9.4-31.2-14.2-46.8
			c-2.5-8.1-4.3-8.8-12.2-5.5c-9.1,3.7-16,9.4-19.4,18.9c-0.6,1.6-1.2,3.2-2.2,4.5c-1.2,1.6-2.9,2.9-4.4,4.4
			c-1.3-1.7-3.1-3.2-3.9-5.1C387.6,137.4,386.8,133.7,385.8,130.5z"/>
		<path class="st0" d="M209.1,349.6c-0.3-2.7-0.8-5.5-0.9-8.3c0-1.2,0.8-2.4,1.3-3.6c1.1,0.5,2.7,0.6,3.4,1.4
			c3.2,3.8,6.6,7.6,9,11.9c1,1.8,0.8,5.5-0.5,7.2c-7.7,11.1-15.8,21.8-23.7,32.7c-5.2,7.3-10.1,14.8-15.3,22.2
			c-0.9,1.3-2.6,2.2-3.9,3.2c-0.8-1.3-1.5-2.7-2.5-3.9c-1.9-2.6-3.4-5.9-6-7.5c-17.1-10.9-34.5-21.4-51.7-32.1
			c-3.7-2.3-7.1-1.9-10.9-0.3c-1.5,0.6-3.4,0.1-5.1,0.2c0.2-1.7,0.1-3.5,0.7-5c6.6-16.1,18.9-28.4,29-42.2c1.5-2,3.4-3.8,4.6-5.9
			c4-7.4,11-7.1,17.9-7.1c1.1,0,3,1.4,3,2c-0.2,1.4-0.9,3.2-2,4c-4.5,3.5-9.6,6.1-13.6,10c-5,5-9.5,10.6-13.5,16.5
			c-3.4,5-2.3,7.9,2.7,11.3c2.5,1.7,5.3,2.9,7.6,4.7c3.8,3,7.1,2.4,9.8-1.2c4.4-5.8,10.6-11,7.9-19.8c-0.2-0.7,2-3,3.1-3.1
			c7.1-0.1,13,2.9,17.4,8.2c2.5,3-0.1,4.9-2.6,6.1c-2.7,1.3-5.7,2-8.3,3.4c-2.8,1.6-5.7,3.5-7.9,5.9c-4.8,5.4-4,9.5,2.2,13.3
			c6.8,4.2,13.6,8.3,20.5,12.4c3.7,2.2,6.8,1.6,9.8-1.5c8.5-8.8,14.6-18.9,18-30.7C209,352.7,208.9,351.2,209.1,349.6z"/>
		<path class="st0" d="M137.2,879.4c0.5,20.9-9.2,33.7-24.5,43c-15.1,9.1-39.6,2-49.3-8.5c-13-14.2-19.2-30.4-15.3-49.4
			c5.8-28.8,41.5-45.2,65.2-29.9C125.8,842.7,138.6,860.1,137.2,879.4z M82,907.8c14.2,0.3,25.5-4.9,35.2-13.1
			c4.6-3.9,9.1-9.5,10.6-15.1c3.9-15.1-5.1-27.3-20.5-30.7c-7.1-1.6-14-1.1-20.7,0.9c-11.2,3.4-22.1,8-28,19.2
			c-4.4,8.2-4.4,16.8-0.6,25.3C62.8,905.5,72.2,908,82,907.8z"/>
		<path class="st0" d="M848.4,102.3c-0.5-2-1.1-4.2-1.7-6.4c-0.9-3.4,0.7-4.7,3.6-3.7c5.2,1.7,10.2,3.8,15.3,6c1,0.4,1.6,1.9,2.3,3
			c-1.1,0.5-2.2,1.5-3.3,1.5c-4.6-0.1-6.8,2.5-8.2,6.5c-6.5,19-13.1,38-19.6,57c-0.4,1.1-0.7,2.2-1.3,3.2c-2.9,5-6.8,5.6-10.1,0.8
			c-3.7-5.3-6.9-11-9.9-16.7c-7.6-14.4-14.8-29-22.6-43.3c-1.5-2.7-4.5-4.5-6.9-6.7c-1.6,2.5-3.8,4.9-4.7,7.6
			c-3.1,9.6-5.8,19.4-8.5,29.1c-1.1,4.1-0.7,7.8,2.2,11.2c0.8,1,0.8,2.7,1.1,4c-1.4,0.3-2.9,1-4.1,0.7c-5.3-1.4-10.6-2.9-15.8-4.7
			c-2.3-0.8-4.1-3.2-0.9-4.6c7.7-3.4,9.2-10.6,11.4-17.3c3.7-11,6.4-22.4,10.5-33.3c3.1-8.3,0.7-14.5-4.6-20.5
			c-1.1-1.3-1.8-3-2.7-4.5c2-0.5,4.1-1.6,5.9-1.3c12.3,1.9,22,6.4,27.6,19.3c6.8,15.7,15.9,30.3,24.3,45.3c1.4,2.5,4.3,4.3,6.5,6.4
			c1.6-2.6,3.6-5.1,4.7-7.9c3-8.1,5.7-16.3,8.4-24.5C847.9,106.7,848,104.7,848.4,102.3z"/>
		<path class="st0" d="M110.8,618.2c-1.2,6.9-2.2,13.7-3.5,20.6c-0.7,4-2.6,4.5-5.9,1.9c-2.4-1.9-5.3-3.7-8.2-4.3
			c-14.6-3.1-29.3-5.9-43.9-8.8c-4.2-0.8-8.4-2.1-12.7-2.7c-6.3-0.9-8,0.9-8.5,7.2c-0.7,9.4,1.4,17.8,7.9,25
			c1.2,1.3,2.3,3.1,2.4,4.7c0,1.1-1.6,3.2-2.7,3.4c-9.2,1.8-17.4-4.9-17.4-14.5c0-6.5,0.7-13,1.6-19.4c2.2-15.6,4.9-31.2,7.2-46.8
			c1.6-10.5,3.3-12.6,13.6-14.9c1.7-0.4,3.8,0.8,5.7,1.2c-0.5,1.9-0.5,4.4-1.7,5.7c-5.3,5.4-9.1,11.4-11.2,18.6
			c-1.3,4.5,0.2,7.7,4.9,8.6c16.7,3.2,33.4,6.1,50,9.2c2.3,0.4,4.5,1.1,6.7,1.9c4.5,1.7,8.1,1.4,10.6-3.3c0.6-1.2,2-1.9,3-2.9
			c0.5,1.5,1.1,3,1.4,4.5c0.2,1.6,0.1,3.3,0.1,5C110.3,618.1,110.6,618.1,110.8,618.2z"/>
		<path class="st0" d="M232.8,1128.7c-4.2,0-8.3,0.1-12.5,0c-4.9-0.1-6-1.6-4.3-6.1c2.4-6.1,6.9-9.7,13.3-10.7
			c6.9-1.1,13,1.1,17.3,6.6c1.9,2.4,2.5,5.9,3.7,8.9c-2.8,0.4-5.7,1.1-8.5,1.3C238.8,1128.9,235.8,1128.8,232.8,1128.7z"/>
	</g>
</g>
</svg>
