<?xml version="1.0" encoding="UTF-8" standalone="no"?>
<svg
   xmlns:dc="http://purl.org/dc/elements/1.1/"
   xmlns:cc="http://creativecommons.org/ns#"
   xmlns:rdf="http://www.w3.org/1999/02/22-rdf-syntax-ns#"
   xmlns:svg="http://www.w3.org/2000/svg"
   xmlns="http://www.w3.org/2000/svg"
   viewBox="0 0 705.33331 92"
   height="92"
   width="705.33331"
   xml:space="preserve"
   id="svg2"
   version="1.1"><metadata
     id="metadata8"><rdf:RDF><cc:Work
         rdf:about=""><dc:format>image/svg+xml</dc:format><dc:type
           rdf:resource="http://purl.org/dc/dcmitype/StillImage" /></cc:Work></rdf:RDF></metadata><defs
     id="defs6"><clipPath
       id="clipPath18"
       clipPathUnits="userSpaceOnUse"><path
         id="path16"
         d="M 0,69 H 529 V 0 H 0 Z" /></clipPath></defs><g
     transform="matrix(1.3333333,0,0,-1.3333333,0,92)"
     id="g10"><g
       id="g12"><g
         clip-path="url(#clipPath18)"
         id="g14"><g
           transform="translate(301.6807,46.9351)"
           id="g20"><path
             id="path22"
             style="fill:#000000;fill-opacity:1;fill-rule:nonzero;stroke:none"
             d="m 0,0 0.021,-12 c 0.014,-7.76 4.063,-13.153 14.263,-13.135 10.2,0.018 14.231,5.425 14.217,13.025 l -0.017,9.64 c -0.008,4.68 1.31,5.883 3.589,6.527 L 32.07,5.296 22.391,5.279 22.393,4.04 c 2.281,-0.637 3.603,-1.834 3.611,-6.514 l 0.017,-9.64 C 26.033,-18.874 22.479,-22 15.759,-22.012 9.079,-22.024 5.473,-18.911 5.461,-12.15 L 5.44,0.009 C 5.435,3.049 6.313,3.571 8.833,3.936 L 8.831,5.255 -3.33,5.234 -3.327,3.914 C -0.807,3.558 -0.005,3.04 0,0 m 43.641,-23.443 c -2.28,0.316 -2.641,0.875 -2.645,3.075 l -0.017,9.24 c 1.998,1.804 3.636,2.687 5.076,2.689 1.96,0.003 2.522,-0.996 2.525,-2.795 l 0.016,-9.12 c 0.004,-2.2 -0.355,-2.761 -2.635,-3.085 l 0.002,-1.24 10.281,0.018 -0.003,1.24 c -2.28,0.316 -2.641,0.876 -2.645,3.075 l -0.017,9.56 c -0.006,3.201 -1.37,5.478 -5.41,5.471 -2.48,-0.004 -4.917,-1.529 -7.314,-3.573 l -0.006,3.84 -1.84,-0.003 -5.794,-3.81 0.002,-0.881 2.76,0.005 0.019,-10.639 c 0.004,-2.201 -0.355,-2.761 -2.635,-3.085 l 0.003,-1.24 10.28,0.018 z m 20.161,21.436 c 1.68,0.003 3.038,1.365 3.035,3.085 -0.003,1.52 -1.165,2.758 -2.725,2.755 -1.76,-0.003 -3.077,-1.365 -3.074,-3.045 0.002,-1.56 1.164,-2.798 2.764,-2.795 m 5.719,-21.39 c -2.481,0.355 -2.842,0.875 -2.846,3.075 l -0.028,15.32 -1.959,-0.004 -5.874,-3.85 0.002,-0.88 2.84,0.005 0.019,-10.6 c 0.004,-2.2 -0.395,-2.721 -2.835,-3.085 l 0.002,-1.24 10.68,0.019 z m 18.258,12.232 c 1.474,3.283 1.952,4.003 3.512,4.406 l -0.002,1.12 -7.88,-0.014 0.002,-1.12 c 2.601,-0.555 2.883,-1.874 1.688,-4.677 l -3.027,-7.245 -3.775,8.513 c -0.803,1.879 -0.685,2.959 2.074,3.284 l -0.002,1.24 -10.52,-0.019 0.002,-1.24 c 1.241,-0.317 1.762,-0.836 2.805,-3.075 l 6.867,-14.828 2.08,0.004 z m 20.977,-9.803 -1.081,0.838 c -1.078,-1.242 -2.717,-2.085 -4.597,-2.088 -3.68,-0.007 -5.765,2.79 -6.531,6.428 l 11.993,4.022 c -0.248,4.239 -3.372,6.554 -7.332,6.547 -5.56,-0.01 -9.632,-4.497 -9.622,-10.057 0.01,-5.52 3.537,-9.714 9.737,-9.703 3.8,0.007 6.077,1.69 7.433,4.013 m -12.535,8.498 c -0.006,3.24 1.351,5.162 3.991,5.167 1.84,0.003 3.002,-1.315 3.487,-3.914 l -7.435,-2.573 c -0.041,0.44 -0.042,0.88 -0.043,1.32 m 25.059,-10.836 c -2.6,0.396 -2.962,0.955 -2.966,3.435 l -0.014,8.24 c 0.797,1.442 1.555,2.483 2.353,3.204 0.003,-1.56 1.085,-2.558 2.446,-2.555 1.359,0.002 2.677,1.084 2.673,3.164 -0.002,1.76 -1.004,2.839 -2.764,2.835 -1.96,-0.003 -3.478,-1.646 -4.913,-3.968 l -0.007,4.04 -1.76,-0.004 -5.794,-3.81 0.002,-0.879 2.76,0.004 0.018,-10.64 c 0.004,-2.2 -0.354,-2.76 -2.634,-3.085 l 0.003,-1.239 10.599,0.018 z m 20.831,4.677 c -0.007,3.72 -3.089,4.875 -5.97,5.79 -2.842,0.915 -4.803,1.511 -4.807,3.591 -0.002,1.12 0.837,2.162 2.477,2.165 2.04,0.003 3.841,-1.234 6.006,-3.67 l 1.039,0.482 -1.529,4.957 -0.64,-0.001 -0.718,-0.601 c -1.121,0.478 -2.402,0.755 -3.762,0.753 -4.24,-0.007 -6.995,-2.452 -6.989,-6.132 0.007,-3.72 3.089,-4.795 5.97,-5.75 2.842,-0.955 4.803,-1.511 4.806,-3.631 0.003,-1.32 -0.995,-2.322 -2.915,-2.325 -2.681,-0.005 -4.724,1.751 -7.169,4.867 l -1.079,-0.402 1.57,-6.237 0.681,0.001 1.158,0.842 c 1.322,-0.637 2.802,-0.995 4.442,-0.992 4.08,0.007 7.436,2.413 7.429,6.293 m 6.97,16.773 c 1.681,0.002 3.038,1.365 3.035,3.085 -0.003,1.52 -1.165,2.758 -2.725,2.755 -1.76,-0.003 -3.078,-1.365 -3.075,-3.046 0.003,-1.56 1.165,-2.797 2.765,-2.794 m 5.718,-21.391 c -2.481,0.356 -2.841,0.875 -2.845,3.076 l -0.027,15.319 -1.96,-0.003 -5.873,-3.851 0.001,-0.879 2.84,0.004 0.019,-10.599 c 0.004,-2.2 -0.395,-2.721 -2.835,-3.085 l 0.002,-1.24 10.681,0.019 z m 15.199,0.587 -0.602,1.279 c -1.08,-0.482 -2.039,-0.723 -2.878,-0.725 -1.881,-0.003 -2.363,0.956 -2.365,2.276 l -0.021,12.04 5.08,0.009 -0.004,2.28 -5.08,-0.009 -0.007,3.72 -0.72,-10e-4 -7.191,-4.733 0.002,-1.28 2.92,0.005 0.023,-13.08 c 0.004,-2.6 1.487,-3.997 4.407,-3.992 2.28,0.004 4.519,0.768 6.436,2.211 m 10.689,-5.021 7.531,16.694 c 1.473,3.282 1.953,4.003 3.511,4.406 l -0.001,1.12 -7.88,-0.014 0.002,-1.12 c 2.601,-0.555 2.883,-1.875 1.688,-4.677 l -3.027,-7.246 -3.776,8.514 c -0.802,1.879 -0.684,2.959 2.075,3.284 l -0.002,1.24 -10.52,-0.019 0.002,-1.24 c 1.24,-0.318 1.722,-0.837 2.806,-3.075 l 6.705,-14.388 -1.115,-2.402 c -0.638,-1.401 -1.237,-2.442 -1.915,-3.043 -0.483,1.639 -1.405,2.517 -2.845,2.514 -1.44,-0.002 -2.678,-0.964 -2.675,-2.845 0.004,-1.879 1.526,-3.277 3.326,-3.273 2.56,0.004 4.157,1.287 6.11,5.57" /></g><g
           transform="translate(67.1655,43.9902)"
           id="g24"><path
             id="path26"
             style="fill:#000000;fill-opacity:1;fill-rule:nonzero;stroke:none"
             d="m 0,0 c -0.008,4.68 1.31,5.882 3.588,6.526 l -0.002,1.24 -9.68,-0.017 0.002,-1.24 c 2.281,-0.636 3.604,-1.834 3.612,-6.513 l 0.025,-14.08 -20.437,20.563 c -1.122,1.118 -1.562,1.237 -2.282,1.236 l -7.56,-0.013 0.002,-1.24 c 1.641,-0.157 2.602,-0.795 4.485,-2.592 0.601,-0.559 1.162,-1.238 1.164,-2.358 l 0.028,-16.04 c 0.009,-4.68 -1.309,-5.883 -3.588,-6.527 l 0.002,-1.239 9.68,0.017 -0.002,1.24 c -2.281,0.636 -3.603,1.833 -3.612,6.513 l -0.026,15.12 23,-23.039 1.641,0.003 z m 26.102,-12.474 c -0.009,5.24 -3.537,9.634 -9.977,9.622 C 9.645,-2.863 5.773,-7.55 5.783,-12.99 c 0.009,-5.24 3.537,-9.634 9.977,-9.622 6.48,0.011 10.351,4.698 10.342,10.138 m -15.323,1.773 c -0.007,3.6 1.549,5.883 4.829,5.889 4.24,0.007 5.49,-5.191 5.498,-9.951 0.006,-3.6 -1.55,-5.883 -4.83,-5.888 -4.24,-0.008 -5.489,5.19 -5.497,9.95 M 39.677,-20.93 c -2.601,0.395 -2.962,0.955 -2.966,3.435 l -0.015,8.24 c 0.798,1.441 1.556,2.483 2.355,3.204 0.002,-1.56 1.084,-2.558 2.444,-2.556 1.36,0.003 2.678,1.085 2.674,3.165 -0.002,1.76 -1.004,2.838 -2.765,2.835 -1.96,-0.003 -3.477,-1.646 -4.912,-3.969 l -0.008,4.04 -1.76,-0.003 -5.793,-3.81 0.002,-0.88 2.759,0.005 0.019,-10.64 c 0.004,-2.2 -0.355,-2.761 -2.634,-3.085 l 0.002,-1.24 10.6,0.019 z m 19.598,0.595 -0.603,1.278 c -1.079,-0.482 -2.038,-0.723 -2.878,-0.725 -1.88,-0.003 -2.362,0.956 -2.364,2.276 l -0.021,12.04 5.079,0.009 -0.004,2.28 -5.08,-0.009 -0.006,3.72 -0.72,-0.001 -7.192,-4.733 0.003,-1.28 2.92,0.005 0.023,-13.08 c 0.004,-2.6 1.487,-3.997 4.407,-3.992 2.28,0.004 4.518,0.768 6.436,2.212 m 11.481,-0.54 C 68.475,-20.559 68.114,-20 68.11,-17.8 l -0.016,9.28 c 1.917,1.764 3.395,2.646 5.075,2.649 1.96,0.004 2.522,-0.995 2.525,-2.796 l 0.016,-9.119 c 0.004,-2.2 -0.355,-2.761 -2.634,-3.085 l 0.002,-1.24 10.28,0.018 -0.002,1.24 c -2.281,0.316 -2.642,0.875 -2.646,3.076 l -0.017,9.56 c -0.005,3.199 -1.369,5.477 -5.409,5.47 -2.44,-0.004 -4.838,-1.449 -7.194,-3.453 l -0.028,15.84 -1.48,-0.003 -6.433,-4.211 0.002,-0.88 2.92,0.005 0.039,-22.36 c 0.004,-2.2 -0.355,-2.76 -2.634,-3.084 l 0.002,-1.24 10.28,0.018 z m 31.837,2.416 -1.082,0.838 c -1.078,-1.242 -2.716,-2.085 -4.596,-2.088 -3.68,-0.006 -5.765,2.79 -6.532,6.429 l 11.993,4.021 c -0.247,4.239 -3.371,6.554 -7.331,6.547 -5.56,-0.01 -9.632,-4.497 -9.623,-10.057 0.01,-5.52 3.537,-9.714 9.738,-9.703 3.799,0.007 6.077,1.691 7.433,4.013 m -12.535,8.498 c -0.006,3.24 1.35,5.163 3.99,5.167 1.84,0.003 3.003,-1.314 3.487,-3.914 L 90.1,-11.281 c -0.041,0.44 -0.042,0.88 -0.042,1.32 m 28.38,-12.31 c 1.72,0.003 3.559,0.807 4.757,1.648 l -0.362,1.12 c -1.959,-0.363 -2.679,-0.085 -2.682,1.235 l -0.019,10.68 c -0.005,3.2 -1.408,4.918 -5.928,4.91 -5.08,-0.009 -8.795,-2.736 -8.791,-5.296 0.002,-1.24 0.844,-2.278 2.284,-2.276 1.64,0.003 2.438,1.084 2.676,2.165 0.238,1.24 -0.164,2.16 -0.765,2.679 0.999,0.481 1.999,0.723 3.039,0.725 1.72,0.003 2.561,-0.595 2.564,-2.155 l 0.007,-4 c -7.157,-1.773 -10.434,-3.339 -10.427,-7.139 0.005,-2.92 1.888,-4.477 4.848,-4.471 1.88,0.003 4.038,0.807 5.876,2.25 0.282,-1.32 1.203,-2.078 2.923,-2.075 m -8.809,5.345 c -0.004,2.04 0.914,3.001 5.592,4.29 l 0.01,-5.801 c -1.118,-0.881 -2.117,-1.283 -3.117,-1.285 -1.56,-0.003 -2.482,0.836 -2.485,2.796 m 30.799,0.814 c -0.007,3.72 -3.089,4.875 -5.971,5.79 -2.841,0.915 -4.802,1.511 -4.806,3.591 -0.002,1.12 0.836,2.162 2.476,2.165 2.04,0.003 3.842,-1.234 6.007,-3.67 l 1.039,0.482 -1.529,4.957 -0.64,-10e-4 -0.719,-0.601 c -1.121,0.478 -2.401,0.755 -3.762,0.753 -4.239,-0.007 -6.995,-2.452 -6.988,-6.132 0.006,-3.72 3.088,-4.795 5.97,-5.75 2.841,-0.954 4.802,-1.511 4.806,-3.631 0.002,-1.32 -0.996,-2.322 -2.916,-2.325 -2.68,-0.005 -4.723,1.752 -7.168,4.867 l -1.08,-0.402 1.571,-6.237 0.68,0.001 1.159,0.842 c 1.321,-0.637 2.801,-0.995 4.442,-0.992 4.08,0.007 7.436,2.413 7.429,6.293 m 15.127,-4.053 -0.602,1.279 c -1.08,-0.482 -2.039,-0.724 -2.879,-0.725 -1.88,-0.004 -2.362,0.956 -2.365,2.276 l -0.021,12.04 5.081,0.008 -0.005,2.281 -5.079,-0.01 -0.007,3.721 -0.72,-0.002 -7.192,-4.732 0.003,-1.281 2.919,0.006 0.023,-13.08 c 0.005,-2.6 1.488,-3.998 4.408,-3.992 2.279,0.003 4.518,0.768 6.436,2.211 m 18.476,1.832 -1.081,0.839 c -1.078,-1.242 -2.716,-2.085 -4.596,-2.089 -3.68,-0.006 -5.765,2.791 -6.532,6.429 l 11.993,4.021 c -0.247,4.24 -3.371,6.554 -7.332,6.547 -5.559,-0.01 -9.631,-4.497 -9.622,-10.057 0.01,-5.52 3.537,-9.713 9.738,-9.703 3.799,0.007 6.077,1.691 7.432,4.013 m -12.534,8.499 c -0.006,3.239 1.35,5.162 3.99,5.167 1.84,0.003 3.003,-1.315 3.487,-3.915 l -7.435,-2.572 c -0.041,0.44 -0.042,0.88 -0.042,1.32 m 25.059,-10.836 c -2.601,0.395 -2.962,0.955 -2.967,3.435 l -0.014,8.239 c 0.798,1.442 1.555,2.483 2.354,3.204 0.003,-1.56 1.085,-2.558 2.445,-2.555 1.36,0.002 2.678,1.085 2.674,3.165 -0.003,1.76 -1.005,2.838 -2.765,2.835 -1.96,-0.004 -3.477,-1.646 -4.913,-3.969 l -0.007,4.04 -1.76,-0.003 -5.793,-3.81 0.002,-0.88 2.759,0.005 0.019,-10.64 c 0.004,-2.2 -0.355,-2.761 -2.634,-3.085 l 0.002,-1.24 10.6,0.019 z m 15.919,0.028 c -2.281,0.316 -2.642,0.875 -2.646,3.075 l -0.016,9.24 c 1.997,1.804 3.635,2.687 5.075,2.689 1.96,0.004 2.522,-0.995 2.525,-2.796 l 0.016,-9.119 c 0.004,-2.2 -0.355,-2.761 -2.635,-3.085 l 0.003,-1.24 10.28,0.018 -0.002,1.24 c -2.281,0.316 -2.642,0.875 -2.646,3.076 l -0.017,9.56 c -0.005,3.199 -1.37,5.477 -5.41,5.47 -2.48,-0.005 -4.917,-1.529 -7.313,-3.573 l -0.007,3.84 -1.84,-0.003 -5.793,-3.811 0.001,-0.879 2.761,0.004 0.018,-10.64 c 0.004,-2.199 -0.355,-2.76 -2.634,-3.084 l 0.002,-1.24 10.28,0.018 z" /></g></g></g></g></svg>