<?xml version="1.0" encoding="utf-8"?>
<!-- Generator: Adobe Illustrator 22.1.0, SVG Export Plug-In . SVG Version: 6.00 Build 0)  -->
<svg version="1.1"
	 id="svg2" xmlns:cc="http://creativecommons.org/ns#" xmlns:dc="http://purl.org/dc/elements/1.1/" xmlns:rdf="http://www.w3.org/1999/02/22-rdf-syntax-ns#" xmlns:svg="http://www.w3.org/2000/svg"
	 xmlns="http://www.w3.org/2000/svg" xmlns:xlink="http://www.w3.org/1999/xlink" x="0px" y="0px" viewBox="0 0 615 91"
	 style="enable-background:new 0 0 615 91;" xml:space="preserve">
<style type="text/css">
	.st0{clip-path:url(#SVGID_2_);}
	.st1{fill:none;}
	.st2{font-family:'Lato-Regular';}
	.st3{font-size:28px;}
</style>
<g>
	<defs>
		<rect id="SVGID_1_" x="-44.5" y="-20.7" width="705.3" height="92"/>
	</defs>
	<clipPath id="SVGID_2_">
		<use xlink:href="#SVGID_1_"  style="overflow:visible;"/>
	</clipPath>
	<g id="g14" class="st0">
		<g id="g20" transform="translate(301.6807,46.9351)">
			<path id="path22" d="M56.1-38.2l0,16c0,10.3,5.4,17.5,19,17.5s19-7.2,19-17.4l0-12.9c0-6.2,1.7-7.8,4.8-8.7l0-1.7l-12.9,0l0,1.7
				c3,0.8,4.8,2.4,4.8,8.7l0,12.9c0,9-4.7,13.2-13.7,13.2C68.2-8.9,63.4-13,63.4-22l0-16.2c0-4.1,1.2-4.7,4.5-5.2l0-1.8l-16.2,0
				l0,1.8C55-43,56.1-42.3,56.1-38.2 M114.3-7c-3-0.4-3.5-1.2-3.5-4.1l0-12.3c2.7-2.4,4.8-3.6,6.8-3.6c2.6,0,3.4,1.3,3.4,3.7l0,12.2
				c0,2.9-0.5,3.7-3.5,4.1l0,1.7l13.7,0l0-1.7c-3-0.4-3.5-1.2-3.5-4.1l0-12.7c0-4.3-1.8-7.3-7.2-7.3c-3.3,0-6.6,2-9.8,4.8l0-5.1
				l-2.5,0l-7.7,5.1l0,1.2l3.7,0l0,14.2c0,2.9-0.5,3.7-3.5,4.1l0,1.7l13.7,0L114.3-7z M141.1-35.6c2.2,0,4.1-1.8,4-4.1
				c0-2-1.6-3.7-3.6-3.7c-2.3,0-4.1,1.8-4.1,4.1C137.5-37.2,139-35.6,141.1-35.6 M148.8-7c-3.3-0.5-3.8-1.2-3.8-4.1l0-20.4l-2.6,0
				l-7.8,5.1l0,1.2l3.8,0l0,14.1c0,2.9-0.5,3.6-3.8,4.1l0,1.7l14.2,0L148.8-7z M173.1-23.3c2-4.4,2.6-5.3,4.7-5.9l0-1.5l-10.5,0
				l0,1.5c3.5,0.7,3.8,2.5,2.3,6.2l-4,9.7l-5-11.4c-1.1-2.5-0.9-3.9,2.8-4.4l0-1.7l-14,0l0,1.7c1.7,0.4,2.3,1.1,3.7,4.1l9.2,19.8
				l2.8,0L173.1-23.3z M201.1-10.3l-1.4-1.1c-1.4,1.7-3.6,2.8-6.1,2.8c-4.9,0-7.7-3.7-8.7-8.6l16-5.4c-0.3-5.7-4.5-8.7-9.8-8.7
				c-7.4,0-12.8,6-12.8,13.4c0,7.4,4.7,13,13,12.9C196.2-4.9,199.3-7.2,201.1-10.3 M184.4-21.6c0-4.3,1.8-6.9,5.3-6.9
				c2.5,0,4,1.8,4.6,5.2l-9.9,3.4C184.4-20.4,184.4-21,184.4-21.6 M217.8-7.2c-3.5-0.5-3.9-1.3-4-4.6l0-11c1.1-1.9,2.1-3.3,3.1-4.3
				c0,2.1,1.4,3.4,3.3,3.4c1.8,0,3.6-1.4,3.6-4.2c0-2.3-1.3-3.8-3.7-3.8c-2.6,0-4.6,2.2-6.6,5.3l0-5.4l-2.3,0l-7.7,5.1l0,1.2l3.7,0
				l0,14.2c0,2.9-0.5,3.7-3.5,4.1l0,1.7l14.1,0L217.8-7.2z M245.6-13.4c0-5-4.1-6.5-8-7.7c-3.8-1.2-6.4-2-6.4-4.8
				c0-1.5,1.1-2.9,3.3-2.9c2.7,0,5.1,1.6,8,4.9l1.4-0.6l-2-6.6l-0.9,0l-1,0.8c-1.5-0.6-3.2-1-5-1c-5.7,0-9.3,3.3-9.3,8.2
				c0,5,4.1,6.4,8,7.7c3.8,1.3,6.4,2,6.4,4.8c0,1.8-1.3,3.1-3.9,3.1c-3.6,0-6.3-2.3-9.6-6.5l-1.4,0.5l2.1,8.3l0.9,0l1.5-1.1
				c1.8,0.8,3.7,1.3,5.9,1.3C241.1-5,245.6-8.2,245.6-13.4 M254.9-35.8c2.2,0,4.1-1.8,4-4.1c0-2-1.6-3.7-3.6-3.7
				c-2.3,0-4.1,1.8-4.1,4.1C251.2-37.4,252.7-35.8,254.9-35.8 M262.5-7.2c-3.3-0.5-3.8-1.2-3.8-4.1l0-20.4l-2.6,0l-7.8,5.1l0,1.2
				l3.8,0l0,14.1c0,2.9-0.5,3.6-3.8,4.1l0,1.7l14.2,0L262.5-7.2z M282.7-8l-0.8-1.7c-1.4,0.6-2.7,1-3.8,1c-2.5,0-3.2-1.3-3.2-3
				l0-16.1l6.8,0l0-3l-6.8,0l0-5l-1,0l-9.6,6.3l0,1.7l3.9,0l0,17.4c0,3.5,2,5.3,5.9,5.3C277.2-5.1,280.2-6.1,282.7-8 M297-1.3
				l10-22.3c2-4.4,2.6-5.3,4.7-5.9l0-1.5l-10.5,0l0,1.5c3.5,0.7,3.8,2.5,2.3,6.2l-4,9.7l-5-11.4c-1.1-2.5-0.9-3.9,2.8-4.4l0-1.7
				l-14,0l0,1.7c1.7,0.4,2.3,1.1,3.7,4.1L295.8-6l-1.5,3.2c-0.9,1.9-1.6,3.3-2.6,4.1c-0.6-2.2-1.9-3.4-3.8-3.4
				c-1.9,0-3.6,1.3-3.6,3.8c0,2.5,2,4.4,4.4,4.4C292.3,6.1,294.4,4.4,297-1.3"/>
		</g>
		<g id="g24" transform="translate(67.1655,43.9902)">
			<path id="path26" d="M-22.1-31.4c0-6.2,1.7-7.8,4.8-8.7l0-1.7l-12.9,0l0,1.7c3,0.8,4.8,2.4,4.8,8.7l0,18.8L-52.6-40
				c-1.5-1.5-2.1-1.6-3-1.6l-10.1,0l0,1.7c2.2,0.2,3.5,1.1,6,3.5c0.8,0.7,1.5,1.7,1.6,3.1l0,21.4c0,6.2-1.7,7.8-4.8,8.7l0,1.7
				l12.9,0l0-1.7c-3-0.8-4.8-2.4-4.8-8.7l0-20.2l30.7,30.7l2.2,0L-22.1-31.4z M12.7-14.7c0-7-4.7-12.8-13.3-12.8
				c-8.6,0-13.8,6.3-13.8,13.5c0,7,4.7,12.8,13.3,12.8C7.6-1.2,12.7-7.5,12.7-14.7 M-7.7-17.1c0-4.8,2.1-7.8,6.4-7.9
				C4.4-25,6-18,6-11.7c0,4.8-2.1,7.8-6.4,7.9C-6-3.8-7.7-10.7-7.7-17.1 M30.8-3.5c-3.5-0.5-3.9-1.3-4-4.6l0-11
				c1.1-1.9,2.1-3.3,3.1-4.3c0,2.1,1.4,3.4,3.3,3.4c1.8,0,3.6-1.4,3.6-4.2c0-2.3-1.3-3.8-3.7-3.8c-2.6,0-4.6,2.2-6.5,5.3l0-5.4
				l-2.3,0l-7.7,5.1l0,1.2l3.7,0l0,14.2c0,2.9-0.5,3.7-3.5,4.1l0,1.7l14.1,0L30.8-3.5z M56.9-4.2L56.1-6c-1.4,0.6-2.7,1-3.8,1
				c-2.5,0-3.1-1.3-3.2-3l0-16.1l6.8,0l0-3l-6.8,0l0-5l-1,0l-9.6,6.3l0,1.7l3.9,0l0,17.4c0,3.5,2,5.3,5.9,5.3
				C51.4-1.3,54.4-2.3,56.9-4.2 M72.2-3.5c-3-0.4-3.5-1.2-3.5-4.1l0-12.4c2.6-2.4,4.5-3.5,6.8-3.5c2.6,0,3.4,1.3,3.4,3.7l0,12.2
				c0,2.9-0.5,3.7-3.5,4.1l0,1.7l13.7,0l0-1.7c-3-0.4-3.5-1.2-3.5-4.1l0-12.7c0-4.3-1.8-7.3-7.2-7.3c-3.3,0-6.5,1.9-9.6,4.6l0-21.1
				l-2,0l-8.6,5.6l0,1.2l3.9,0l0.1,29.8c0,2.9-0.5,3.7-3.5,4.1l0,1.7l13.7,0L72.2-3.5z M114.7-6.7l-1.4-1.1
				c-1.4,1.7-3.6,2.8-6.1,2.8c-4.9,0-7.7-3.7-8.7-8.6l16-5.4c-0.3-5.7-4.5-8.7-9.8-8.7c-7.4,0-12.8,6-12.8,13.4
				c0,7.4,4.7,13,13,12.9C109.9-1.4,112.9-3.7,114.7-6.7 M98-18.1c0-4.3,1.8-6.9,5.3-6.9c2.5,0,4,1.8,4.6,5.2L98-16.3
				C98-16.9,98-17.5,98-18.1 M135.8-1.7c2.3,0,4.7-1.1,6.3-2.2l-0.5-1.5c-2.6,0.5-3.6,0.1-3.6-1.6l0-14.2c0-4.3-1.9-6.6-7.9-6.5
				c-6.8,0-11.7,3.6-11.7,7.1c0,1.7,1.1,3,3,3c2.2,0,3.3-1.4,3.6-2.9c0.3-1.7-0.2-2.9-1-3.6c1.3-0.6,2.7-1,4.1-1
				c2.3,0,3.4,0.8,3.4,2.9l0,5.3c-9.5,2.4-13.9,4.5-13.9,9.5c0,3.9,2.5,6,6.5,6c2.5,0,5.4-1.1,7.8-3C132.3-2.7,133.5-1.7,135.8-1.7
				 M124.1-8.8c0-2.7,1.2-4,7.5-5.7l0,7.7c-1.5,1.2-2.8,1.7-4.2,1.7C125.3-5.1,124.1-6.2,124.1-8.8 M165.1-9.9c0-5-4.1-6.5-8-7.7
				c-3.8-1.2-6.4-2-6.4-4.8c0-1.5,1.1-2.9,3.3-2.9c2.7,0,5.1,1.6,8,4.9l1.4-0.6l-2-6.6l-0.9,0l-1,0.8c-1.5-0.6-3.2-1-5-1
				c-5.7,0-9.3,3.3-9.3,8.2c0,5,4.1,6.4,8,7.7c3.8,1.3,6.4,2,6.4,4.8c0,1.8-1.3,3.1-3.9,3.1c-3.6,0-6.3-2.3-9.6-6.5l-1.4,0.5
				l2.1,8.3l0.9,0l1.5-1.1c1.8,0.8,3.7,1.3,5.9,1.3C160.7-1.5,165.2-4.7,165.1-9.9 M185.3-4.5l-0.8-1.7c-1.4,0.6-2.7,1-3.8,1
				c-2.5,0-3.1-1.3-3.2-3l0-16.1l6.8,0l0-3l-6.8,0l0-5l-1,0l-9.6,6.3l0,1.7l3.9,0l0,17.4c0,3.5,2,5.3,5.9,5.3
				C179.8-1.5,182.8-2.6,185.3-4.5 M209.9-6.9L208.5-8c-1.4,1.7-3.6,2.8-6.1,2.8c-4.9,0-7.7-3.7-8.7-8.6l16-5.4
				c-0.3-5.7-4.5-8.7-9.8-8.7c-7.4,0-12.8,6-12.8,13.4c0,7.4,4.7,13,13,12.9C205.1-1.6,208.1-3.8,209.9-6.9 M193.2-18.2
				c0-4.3,1.8-6.9,5.3-6.9c2.5,0,4,1.8,4.6,5.2l-9.9,3.4C193.2-17.1,193.2-17.7,193.2-18.2 M226.6-3.8c-3.5-0.5-3.9-1.3-4-4.6l0-11
				c1.1-1.9,2.1-3.3,3.1-4.3c0,2.1,1.4,3.4,3.3,3.4c1.8,0,3.6-1.4,3.6-4.2c0-2.3-1.3-3.8-3.7-3.8c-2.6,0-4.6,2.2-6.6,5.3l0-5.4
				l-2.3,0l-7.7,5.1l0,1.2l3.7,0l0,14.2c0,2.9-0.5,3.7-3.5,4.1l0,1.7l14.1,0L226.6-3.8z M247.9-3.8c-3-0.4-3.5-1.2-3.5-4.1l0-12.3
				c2.7-2.4,4.8-3.6,6.8-3.6c2.6,0,3.4,1.3,3.4,3.7l0,12.2c0,2.9-0.5,3.7-3.5,4.1l0,1.7l13.7,0l0-1.7c-3-0.4-3.5-1.2-3.5-4.1l0-12.7
				c0-4.3-1.8-7.3-7.2-7.3c-3.3,0-6.6,2-9.8,4.8l0-5.1l-2.5,0l-7.7,5.1l0,1.2l3.7,0l0,14.2c0,2.9-0.5,3.7-3.5,4.1l0,1.7l13.7,0
				L247.9-3.8z"/>
		</g>
	</g>
</g>
<rect y="59" class="st1" width="615" height="46"/>
<text transform="matrix(1 0 0 1 164.5059 79.6494)" class="st2 st3">Universal Login Service</text>
</svg>
