<svg xmlns="http://www.w3.org/2000/svg" viewBox="0 0 1350 750"><filter id="b"><feGaussianBlur stdDeviation="12"/></filter><path fill="#979a9d" d="M0 0h1350v748H0z"/><g filter="url(#b)" transform="translate(2.6 2.6) scale(5.27344)" fill-opacity=".5"><path fill="#201f23" d="M204 40L63 12l5 145z"/><ellipse fill="#fff" rx="1" ry="1" transform="matrix(.53333 -20.9208 203.43468 5.18612 159.3 0)"/><ellipse fill="#fffffb" cx="207" cy="141" rx="103" ry="31"/><ellipse fill="#fff" rx="1" ry="1" transform="matrix(-1.19127 20.29546 -31.01126 -1.82024 20.7 133.4)"/><ellipse fill="#846f6b" rx="1" ry="1" transform="matrix(2.11137 -46.65406 39.20686 1.77434 151.6 70)"/><ellipse fill="#fff" cy="62" rx="27" ry="24"/><path fill="#071921" d="M81 14h31v122H81z"/><ellipse fill="#fff" rx="1" ry="1" transform="matrix(-1.65456 -10.4465 20.11317 -3.18561 213.2 72.6)"/><ellipse fill="#1d2227" rx="1" ry="1" transform="matrix(-8.72111 13.48079 -22.29656 -14.4243 254.9 64.1)"/><path fill="#0d2534" d="M43 22L33.5 9.6l-1.7 74 10.5 12.2z"/><path fill="#e97c3f" d="M143.5 79.5l-9.1-38.4 29.9-3.7 21 40z"/><ellipse fill="#ecf4f9" rx="1" ry="1" transform="matrix(-1.17025 12.3728 -210.17623 -19.87905 191.2 12.2)"/><path fill="#fff4e2" d="M113 116h127v24H113z"/><path fill="#4e6371" d="M58 13h28v126H58z"/><ellipse fill="#ffffeb" cx="44" cy="140" rx="82" ry="3"/><path fill="#5c7286" d="M112 81h68v36h-68z"/><path fill="#fff" d="M0 118h44v21H0z"/><path fill="#374752" d="M149 24h40v31h-40z"/><ellipse fill="#d7eae7" rx="1" ry="1" transform="matrix(.45126 -64.63733 4.68598 .03271 47.1 55.7)"/><ellipse fill="#b1bcd3" rx="1" ry="1" transform="matrix(2.31819 -11.46516 45.28444 9.15623 214.4 99.9)"/><ellipse fill="#fff" cx="34" cy="5" rx="97" ry="8"/><ellipse fill="#afb8c9" rx="1" ry="1" transform="matrix(-4.7548 -14.44505 64.98103 -21.38944 255 18.9)"/></g></svg>