<svg xmlns="http://www.w3.org/2000/svg" viewBox="0 0 2880 600"><filter id="b"><feGaussianBlur stdDeviation="12" /></filter><path fill="#e6e7e6" d="M0 0h2880v596H0z"/><g filter="url(#b)" transform="translate(5.6 5.6) scale(11.25)" fill-opacity=".5"><ellipse fill="#fff" rx="1" ry="1" transform="matrix(-37.5995 6.30623 -12.53452 -74.73427 32.6 46.2)"/><ellipse fill="#d2ccca" rx="1" ry="1" transform="matrix(-36.15227 -18.07315 25.74825 -51.50502 228.7 52)"/><ellipse fill="#cecfcc" rx="1" ry="1" transform="rotate(156.6 74.4 21.5) scale(31.68852 22.20549)"/><path fill="#dbd5cc" d="M-16 46l93.7-31.8L15 26.6l-31 8.8z"/><path fill="#fff" d="M63.3 16.1L-3.2 30.3l-6-28.4 66.4-14.2z"/><ellipse fill="#feffff" rx="1" ry="1" transform="rotate(83.6 -9.5 47.9) scale(22.32246 35.01573)"/><path fill="#fbffff" d="M152.2 56l-24 12-5.6-34.5 15.6 4.7z"/><ellipse fill="#e8f2f7" cx="93" cy="27" rx="22" ry="25"/><path fill="#c5c6c5" d="M116.8 7.1l9-4.5 15.4 30.3-9 4.5z"/><path fill="#ced0cd" d="M73 36.3L55.2-16l58.9 1-57.5 33.7z"/><path fill="#c1c3c0" d="M51 68l72-25-24 25z"/><path fill="#efefeb" d="M185 30.4l-46-14.5 20.6 46.6-16.3 5.5z"/><ellipse fill="#dee1e2" rx="1" ry="1" transform="matrix(40.32177 -55.29495 10.33873 7.53913 192.9 38.5)"/><ellipse fill="#d8d0ce" rx="1" ry="1" transform="matrix(-10.2241 27.49176 -18.01645 -6.70026 252.2 26.1)"/><path fill="#f9fbf9" d="M114.2 3.5l39-5 47.9 8L102.8-16z"/><ellipse fill="#fcfffe" rx="1" ry="1" transform="matrix(-9.10449 -25.14756 2.6909 -.97422 128.5 43)"/><path fill="#e2dfda" d="M151.9 48.7L175.5 20 134 45.8l-26.3-5z"/><path fill="#fff" d="M39.6 37.1l.8 15-52 2.8-.8-15z"/><path fill="#d2d7d2" d="M121.2 38.7L104.5-16l13.4 28.7 2 18.7z"/><ellipse fill="#fffffc" rx="1" ry="1" transform="matrix(36.18296 -7.60954 4.94239 23.5008 27.1 0)"/><path fill="#c8cbca" d="M184 6l-19 24 8-26z"/><path fill="#f6fffe" d="M80 68L66 24l-29-5z"/></g></svg>