<svg id="Layer_1" xmlns="http://www.w3.org/2000/svg" viewBox="0 0 957.1 1127.8"><style>.st0{fill:#c6c6c6}.st1{fill:#c5c5c5}</style><path class="st0" d="M957.1 215.8c-9.3-.7-15.8-5.7-18.4-14.3-2.4-7.7.2-15.1 6.6-20 3.2-2.5 7.8-3.2 11.8-4.7v39zM383 193.7c.8 16-6.7 28-19.1 36.9-6.8 4.9-14.6 8.6-22.4 11.6-6.4 2.4-10 6.6-12.9 12.3-.9 1.9-2.1 3.8-3.7 5.1-9.2 7.1-18.5 14.1-27.9 21-4.6 3.4-6.5 2.6-6.9-3-.3-4.1-2-6.9-5.8-8.6-10.1-4.7-14.9-3.8-22.8 3.8-4.3 4.2-8.9 8-13.1 12.3-6.7 6.8-6.4 17.5.8 23.7 1.4 1.2 4 1 6 1.5 1.5.4 3.4.5 4.2 1.5.5.6-.1 3-1 3.9-3.6 3.9-7.3 7.8-11.4 11.2-1.4 1.2-4.3 2-5.8 1.4-1.2-.5-1.8-3.6-1.6-5.5.7-7.3-1.1-14.1-3.7-20.9-4.2-11-8-22.2-12.2-33.2-1.9-5.1-4.2-10.1-6.7-14.9-2.3-4.5-6.4-5.5-11.6-3.1-2.8 1.3-6 3.9-8.3.5-.7-1 2.1-4.9 4-6.9 3.3-3.5 7-6.6 10.6-9.8 4.1-3.6 8.8-4.4 14-2.7 12 3.8 24.1 7.7 36.2 11.2 8.6 2.5 17.3 4.6 26 7 5.8 1.6 11.5 3.5 17.3 4.7 4 .8 8.3 1.2 12.3 1 5.9-.4 7.3-4 3.8-8.8-2.2-3.1-4.7-6.1-6.5-9.5-.9-1.6-.3-4-.4-6.1 1.7 0 3.5-.3 5.1.1 19 4.6 34.5-1.7 47.2-15.5 3-3.3 4.7-8.4 5.6-13 1.5-7.1-4-11.9-11.4-11.1-11.5 1.3-20.7 7.7-30.6 12.8-9.5 4.9-19.6 5.2-29 .1-5.4-3-7.9-8.7-8.4-15.1-1.4-21.8 10.9-35.4 28-45.8 5.1-3.1 10.4-5.9 15.7-8.7 1.2-.7 3.5-1.4 4.1-.9 4.5 4 9.1 8.1 12.9 12.8 1.6 2-1.3 3.8-5.2 3.4-4.2-.5-8.9-1.8-12.6-.6-8.1 2.7-16.1 6.2-23.4 10.6-5.6 3.4-7.9 9.8-8.2 16.4-.3 5.9 8.7 11.5 15 8.9 8.4-3.5 16.4-8.2 24.8-11.5 6.4-2.5 13.3-4.6 20.1-5.3 9.6-1 17.9 7 18.7 16.7.4 2.7.2 5.4.2 8.1zm-152.2 59.2c-.7 1.6-2.5 3.6-2 4.8 2.3 6.9 4.9 13.7 7.8 20.3 1.4 3.1 4.1 3.1 6.6.9 4.1-3.6 8.2-7.2 12.1-11.1 3.2-3.2 3-6.4-1-7.9-7.3-2.7-14.9-4.4-23.5-7zM25.1 748.7c1.1-6.8 1.5-17 4.5-26.2 5.9-17.9 25.2-23.9 41.1-13.9 6.3 4 8.5 10.9 11.3 17.2 2.2 5 2.9 5.5 6.7 1.7 10.2-10.1 20.1-20.4 24.9-34.5.4-1.3 2.3-2.1 3.5-3.2.8 1.1 2.3 2.2 2.4 3.5.6 7.1 1.3 14.3 1.1 21.4-.3 9.1-7.7 14.4-13 20.7-4.9 5.9-10.5 11.2-15.6 16.8-1.5 1.7-3.2 3.7-3.6 5.8-.6 3.4-1.6 7.9 0 10.3 1.2 1.9 6.1 1.5 9.4 1.7 2.6.2 5.3-.2 8-.5 4.9-.6 9.9-.4 13.6-4.9 2.3-2.9 4.8-1.8 5.4 2 1.2 7.7 2.2 15.5 3.1 23.2.2 1.6-.1 3.4-.7 4.9-.9 2.4-2.9 3.6-5 1.3-4.1-4.6-9.5-4.4-14.8-4.3-11.5.1-23 .5-34.4.9-8 .3-15.9.6-23.9 1.1-4.8.3-9 1.8-11.6 6.5-1 1.8-3.2 2.9-4.9 4.3-1.2-2.1-3.2-4-3.4-6.2-1.4-15.2-2.6-30.8-4.1-49.6zm31.3-22c-14.2 0-23.9 11.1-22 25.2.4 3.1.6 6.3.6 9.4.1 8.9 3 11.6 11.9 11.2 7-.3 13.9-.6 20.9-.8 6-.2 9.7-2.4 9.8-8.3.1-7.8-.7-15.8-2.6-23.4-2.6-10.1-7.9-13.3-18.6-13.3z"/><path class="st1" d="M108.6 479.3c-4 .4-5.7 4.5-7.2 8.6-3 8.2-5.6 16.7-8.6 24.9-2.9 7.8-1.9 10.9 5.7 14.1 6.1 2.6 12.2 5.4 18.6 7.1 2.4.6 5.6-1.6 8.4-2.6 1.5-.5 2.9-1.1 4.3-1.7.4 1.5 1.4 3.3 1.1 4.6-2.4 8.6-4.7 17.3-7.9 25.7-2.1 5.6-4.3 5.1-8.4.8-2.9-3-6.7-5.4-10.6-6.9-12.6-4.7-25.3-8.9-38-13.3-3.5-1.2-7-2.2-10.3-3.6-4.3-1.9-7.4-.7-10 2.8-.6.8-1.1 1.9-1.9 2.3-1.2.6-2.8 1.1-3.9.8-.6-.2-1.3-2.4-1-3.4 3.3-11.3 6.8-22.5 10.4-33.7.5-1.4 2.4-2.4 3.7-3.5.9 1.3 2.3 2.4 2.8 3.8 2.2 6.8 8.6 8.1 14 10.2 9.9 3.8 13 2.3 16.4-7.9 3.3-9.9 6.1-20 9.3-29.9 1.5-4.8-1-7.3-4.7-9.1-4.2-2-8.4-4.3-12.8-5.5-2.7-.7-5.9.6-8.9.8-1.4.1-3.1.3-4.1-.3-.7-.4-.9-2.5-.5-3.6 3-8.1 5.9-16.2 9.4-24.1 2.2-4.9 3.7-4.4 6.8-.4 2.5 3.1 5.7 6.2 9.3 7.8 16.2 7.4 32.5 14.3 49 21.1 2.8 1.2 6.4.5 9.7.8 1.4.1 3.3-.2 4.1.6.7.7.5 2.8 0 4-2.4 6.7-4.8 13.4-7.4 20.1-2 5.2-4.4 5.7-8.3 1.9-5.3-5.1-21.7-13.1-28.5-13.3zM656 132.5c-3.8 0-7.7.3-11.5-.1-1.7-.2-3.4-1.8-4.6-3.2-.3-.3 1.6-2.4 2.2-3.7 1.7-3.7 4.1-7.3 4.8-11.1 1.9-11.6 3.3-23.3 4.7-35 .8-6.8 1.5-13.6 1.2-20.4-.1-2.8-3.2-5.3-4.9-8.1-.8-1.3-1.4-2.7-2.1-4.1 1.3-.6 2.6-1.8 3.9-1.8 12.1.4 24.2.9 36.3 1.6 5.6.4 11.2 1.2 16.7 2.3 9.9 2.1 19.2 5.5 25.7 14 10.2 13.3 3.3 32.7-13.1 36.7-11.8 2.9-11.7 2.9-4.7 12.3 6.4 8.6 13.3 16.7 23.1 21.6 1.1.6 1.7 2.2 2.5 3.4-1.2.6-2.5 1.7-3.7 1.8-14 .6-26.3-2.3-34.6-15.2-4.2-6.5-9.5-12.4-14.5-18.4-1.6-1.9-3.7-3.5-5.8-4.6-5.3-2.6-9-.4-9.6 5.4-.5 4.6-1.5 9.3-1.4 13.9.1 2.9 1.3 6 2.7 8.7 1.4 2.9.8 4.1-2.2 4.2-3.7.1-7.3 0-11 0-.1-.1-.1-.1-.1-.2zm32.2-37.7c.1-.4.2-.8.3-1.1 2.7 0 5.3.2 8 0 5.6-.4 10.2-2.8 13.3-7.7 7.8-12.4-.1-27.6-12.2-30-5.2-1-10.6-1-15.8-1.8-4.8-.7-7.6 1.5-8.3 5.8-1.4 8.2-2.4 16.4-2.9 24.7-.1 2.1 1.8 5.5 3.6 6.3 4.4 1.9 9.3 2.6 14 3.8z"/><path class="st0" d="M572.6 150.7c12.7-3.2 28.6-4.2 39.4-17.4 1.3-1.5 2.7-3 4.3-4.2.8-.7 2.2-1.4 2.9-1.1.8.3 1.6 2 1.4 2.8-1.3 6-2.4 12.1-4.6 17.8-.8 2.1-4 4.4-6.4 4.8-19.7 3.3-39.4 6.2-59.1 9.3-4.4.7-8.8 2.1-13.2 2.7-1.4.2-3-.9-4.4-1.3.5-1.3.9-2.6 1.4-4 1-3.1 3-6.3 2.7-9.3-1.3-14.9-3.2-29.7-4.9-44.6-.6-5.3-1.5-10.5-1.7-15.8-.2-5.5-2.6-9-7.7-11.1-1.4-.6-2.5-1.9-3.7-2.8 1.2-1.2 2.2-2.9 3.7-3.5 14.7-6 30.2-7.7 45.8-9.3 5.9-.6 11.8-1.9 17.7-2.6 6.4-.8 12.5-.1 16.5 5.7 1.2 1.8 1.3 4.4 2 6.6-2.2.3-4.6 1.4-6.5.8-11.1-3.4-22.4-3.1-33.6-1.4-3.4.5-6.7 2-9.7 3.6-1.5.8-3.3 3.1-3.2 4.6.5 5.4 1.5 10.8 2.7 16.1.2 1 1.9 2.2 3 2.3 9 .6 18.1 1.4 24.4-7.4 2.8-3.9 5.4-3.8 6.9.5 1.9 5.4 2.9 11.2 3.4 16.9.3 3.6-2.6 4.8-5.9 3.8-2.2-.7-4.3-1.8-6.3-2.9-6.3-3.6-13-2.9-19.4-.9-1.9.6-4 4.8-3.9 7.1.7 9.4 2 18.8 3.6 28.2.6 5.3 2.6 6.1 12.4 6z"/><path class="st1" d="M116.9 1053.1c1-4.8 1.7-9.2 2.8-13.5 3.5-14.2 7.2-28.3 10.7-42.5 1.5-6.1 3.1-12.2 4.2-18.4.3-1.8-.4-4.8-1.6-5.7-1.3-.9-4.4-.7-5.9.2-9.9 6-19.9 12.2-29.4 18.9-2.7 1.9-4.2 5.7-5.7 8.8-1.4 2.8-3.4 3.5-4.8 1.1-3.3-5.7-6.1-11.8-8.8-17.8-.4-.8.5-2.8 1.4-3.3.8-.4 2.7 0 3.4.8 3.4 3.7 6.6 3.3 10.6.8 17.1-10.6 34.3-21.1 51.5-31.5 2.6-1.5 5.3-2.9 8-4 5.9-2.5 9.3.1 8.2 6.5-1.2 7-2.8 14-4.6 20.9-4.4 17-9.2 34-13.2 51.1-.9 3.9.4 8.3.7 12.5 3.2-1.4 6.7-2.3 9.6-4.1 8.7-5.5 17.2-11.4 25.8-17 4.4-2.9 6.6-6.8 7.2-11.9.1-1.3 1.3-2.4 1.9-3.6 1.2.8 2.7 1.3 3.5 2.4 3 4.6 5.9 9.3 8.6 14.1.7 1.3.8 3.3.2 4.6-.3.7-2.6 1-3.9.7-6.3-1.2-11.8.8-17 4.2-11.1 7.3-22.2 14.7-33.5 21.6-8.6 5.3-13 12.4-12.9 22.6 0 1.9-1.2 3.8-1.9 5.7-1.6-1.2-3.7-2.1-4.7-3.7-3.2-4.8-6.1-9.9-8.9-15-.8-1.8-1.1-3.9-1.5-5.5zM385.8 130.5c1-6.8 5.2-10.4 10.3-12.5 15.1-6.1 30.3-12 45.6-17.5 11.3-4.1 22.8-7.3 34.2-11 4.5-1.5 7.5 1.1 10 3.9 2.8 3.1 7.2 6.8 4.5 11-1.1 1.7-7.4 1-10.8-.1-7.6-2.3-14.8-1.7-22.1.6-5.1 1.6-5.6 3.7-4.1 8.7 3.7 11.9 7 23.9 10.5 35.9 3.2 10.7 6.4 21.3 9.7 31.9 1.1 3.7 4 4.3 7.5 4.6 1.8.1 3.4 1.4 5.1 2.2-1.4 1.3-2.5 3.3-4.1 3.9-8.8 3.5-17.7 6.8-26.7 10-3.2 1.1-7 .8-6-3.6 2.2-9.9-1.3-18.8-3.9-27.8-4.5-15.7-9.4-31.2-14.2-46.8-2.5-8.1-4.3-8.8-12.2-5.5-9.1 3.7-16 9.4-19.4 18.9-.6 1.6-1.2 3.2-2.2 4.5-1.2 1.6-2.9 2.9-4.4 4.4-1.3-1.7-3.1-3.2-3.9-5.1-1.6-3.7-2.4-7.4-3.4-10.6z"/><path class="st0" d="M209.1 349.6c-.3-2.7-.8-5.5-.9-8.3 0-1.2.8-2.4 1.3-3.6 1.1.5 2.7.6 3.4 1.4 3.2 3.8 6.6 7.6 9 11.9 1 1.8.8 5.5-.5 7.2-7.7 11.1-15.8 21.8-23.7 32.7-5.2 7.3-10.1 14.8-15.3 22.2-.9 1.3-2.6 2.2-3.9 3.2-.8-1.3-1.5-2.7-2.5-3.9-1.9-2.6-3.4-5.9-6-7.5-17.1-10.9-34.5-21.4-51.7-32.1-3.7-2.3-7.1-1.9-10.9-.3-1.5.6-3.4.1-5.1.2.2-1.7.1-3.5.7-5 6.6-16.1 18.9-28.4 29-42.2 1.5-2 3.4-3.8 4.6-5.9 4-7.4 11-7.1 17.9-7.1 1.1 0 3 1.4 3 2-.2 1.4-.9 3.2-2 4-4.5 3.5-9.6 6.1-13.6 10-5 5-9.5 10.6-13.5 16.5-3.4 5-2.3 7.9 2.7 11.3 2.5 1.7 5.3 2.9 7.6 4.7 3.8 3 7.1 2.4 9.8-1.2 4.4-5.8 10.6-11 7.9-19.8-.2-.7 2-3 3.1-3.1 7.1-.1 13 2.9 17.4 8.2 2.5 3-.1 4.9-2.6 6.1-2.7 1.3-5.7 2-8.3 3.4-2.8 1.6-5.7 3.5-7.9 5.9-4.8 5.4-4 9.5 2.2 13.3 6.8 4.2 13.6 8.3 20.5 12.4 3.7 2.2 6.8 1.6 9.8-1.5 8.5-8.8 14.6-18.9 18-30.7.4-1.3.3-2.8.5-4.4zM137.2 879.4c.5 20.9-9.2 33.7-24.5 43-15.1 9.1-39.6 2-49.3-8.5-13-14.2-19.2-30.4-15.3-49.4 5.8-28.8 41.5-45.2 65.2-29.9 12.5 8.1 25.3 25.5 23.9 44.8zM82 907.8c14.2.3 25.5-4.9 35.2-13.1 4.6-3.9 9.1-9.5 10.6-15.1 3.9-15.1-5.1-27.3-20.5-30.7-7.1-1.6-14-1.1-20.7.9-11.2 3.4-22.1 8-28 19.2-4.4 8.2-4.4 16.8-.6 25.3 4.8 11.2 14.2 13.7 24 13.5zM848.4 102.3c-.5-2-1.1-4.2-1.7-6.4-.9-3.4.7-4.7 3.6-3.7 5.2 1.7 10.2 3.8 15.3 6 1 .4 1.6 1.9 2.3 3-1.1.5-2.2 1.5-3.3 1.5-4.6-.1-6.8 2.5-8.2 6.5-6.5 19-13.1 38-19.6 57-.4 1.1-.7 2.2-1.3 3.2-2.9 5-6.8 5.6-10.1.8-3.7-5.3-6.9-11-9.9-16.7-7.6-14.4-14.8-29-22.6-43.3-1.5-2.7-4.5-4.5-6.9-6.7-1.6 2.5-3.8 4.9-4.7 7.6-3.1 9.6-5.8 19.4-8.5 29.1-1.1 4.1-.7 7.8 2.2 11.2.8 1 .8 2.7 1.1 4-1.4.3-2.9 1-4.1.7-5.3-1.4-10.6-2.9-15.8-4.7-2.3-.8-4.1-3.2-.9-4.6 7.7-3.4 9.2-10.6 11.4-17.3 3.7-11 6.4-22.4 10.5-33.3 3.1-8.3.7-14.5-4.6-20.5-1.1-1.3-1.8-3-2.7-4.5 2-.5 4.1-1.6 5.9-1.3 12.3 1.9 22 6.4 27.6 19.3 6.8 15.7 15.9 30.3 24.3 45.3 1.4 2.5 4.3 4.3 6.5 6.4 1.6-2.6 3.6-5.1 4.7-7.9 3-8.1 5.7-16.3 8.4-24.5.6-1.8.7-3.8 1.1-6.2zM110.8 618.2c-1.2 6.9-2.2 13.7-3.5 20.6-.7 4-2.6 4.5-5.9 1.9-2.4-1.9-5.3-3.7-8.2-4.3-14.6-3.1-29.3-5.9-43.9-8.8-4.2-.8-8.4-2.1-12.7-2.7-6.3-.9-8 .9-8.5 7.2-.7 9.4 1.4 17.8 7.9 25 1.2 1.3 2.3 3.1 2.4 4.7 0 1.1-1.6 3.2-2.7 3.4-9.2 1.8-17.4-4.9-17.4-14.5 0-6.5.7-13 1.6-19.4 2.2-15.6 4.9-31.2 7.2-46.8 1.6-10.5 3.3-12.6 13.6-14.9 1.7-.4 3.8.8 5.7 1.2-.5 1.9-.5 4.4-1.7 5.7-5.3 5.4-9.1 11.4-11.2 18.6-1.3 4.5.2 7.7 4.9 8.6 16.7 3.2 33.4 6.1 50 9.2 2.3.4 4.5 1.1 6.7 1.9 4.5 1.7 8.1 1.4 10.6-3.3.6-1.2 2-1.9 3-2.9.5 1.5 1.1 3 1.4 4.5.2 1.6.1 3.3.1 5 .1 0 .4 0 .6.1zM232.8 1128.7c-4.2 0-8.3.1-12.5 0-4.9-.1-6-1.6-4.3-6.1 2.4-6.1 6.9-9.7 13.3-10.7 6.9-1.1 13 1.1 17.3 6.6 1.9 2.4 2.5 5.9 3.7 8.9-2.8.4-5.7 1.1-8.5 1.3-3 .2-6 .1-9 0z"/></svg>