<svg version="1.1" id="Layer_1" xmlns="http://www.w3.org/2000/svg" x="0" y="0" viewBox="0 0 817 1097" xml:space="preserve"><style>.st0{fill:#3f3b55}.st1{fill:#d2d1d7}.st2{fill:#f3edee}.st3{fill:#f2eced}.st4{fill:#84ccec}.st5{fill:#403c56}</style><path class="st0" d="M807 1097H663c.2-1.8.5-3.6.5-5.4 0-45.8-.5-91.6.1-137.4.6-45.7-2.9-91.5 2.2-137.2 1.5-3.7 2.7-7.5 4.5-11 4.9-9.6 9.7-19.3 15-28.7 12.7-22.4 25.2-45 38.6-67 11.7-19.1 19.3-39.4 21.3-61.7 4.3-47.2-9.6-88.4-42.2-122.9-5.1-5.4-11-10.1-16.6-15.1-1.6 12.4-2.3 23.9-4.6 35-4.8 23.1-16.8 41.8-36.9 54.8-23.2 14.9-49.1 18.6-76.1 17.7-11.9-.4-23.4-3.4-34.4-7.7-26.7-10.4-48.4-27.6-66-50-19.5-25-31-52.9-31-85.1.1-78.5.1-157 0-235.5 0-4.5.1-9-.4-13.5-1.2-11.5-11.3-21.8-22.7-23.5-19.5-2.8-33.9 9.5-33.9 29.5-.1 82 0 164-.1 246 0 17.6-4.1 34.4-11.4 50.2-11.8 25.8-29.5 47-52.4 63.7-17.9 13.1-37.5 22.1-59.6 25-21.1 2.8-42 .5-62.1-6.2-21.8-7.3-39.1-20.6-50-41.1-8.8-16.5-12.2-34.4-12.2-53v-6.7c-2.4 1.8-4 2.8-5.3 3.9-35.2 30-54.1 68.1-55.4 114.4-.7 24.5 3.3 48.2 15.4 69.8 13.7 24.5 28.3 48.6 41.9 73.2 8.2 14.8 15.2 30.2 22.7 45.4.8 6.4 2.3 12.8 2.3 19.2.1 85.1.1 170.3.1 255.4 0 1.8.3 3.6.5 5.4h-144c.1-2 .3-4 .3-6 0-49.5.1-98.9.1-148.4V544.6c0-128.7-.1-257.3.1-386 0-17.1.6-34.3 2.5-51.2 2.7-24.1 10.3-46.7 24.9-66.5C64.7 6.1 107-4 146.9 10.3c18 6.4 32.3 18.1 46.2 30.7 35.6 32.4 71.5 64.3 107.5 96.2 1.5 1.3 4.6 2.1 6.6 1.6 25.5-6.7 51.4-10.8 77.7-12.4 24.8-1.5 49.7-1.1 74.3 2.5 17.4 2.5 34.6 6.7 51.9 9.9 2 .4 4.8-.1 6.2-1.3 6.9-5.8 13.3-12 20-18 33.2-29.7 66.3-59.7 99.8-89C660.3 10.2 687.5 1.4 718.4 5c24.7 2.8 44.4 15 59.6 34.4 13.1 16.8 20.2 36.5 24.5 57.3 4.5 21.4 4.2 43 4.2 64.6v930.3c0 1.8.2 3.6.3 5.4zM614 182.1c.6.5 1.2 1.1 1.9 1.5 21.6 13.4 42.3 28.2 60.6 45.8 13.6 13.1 26.3 27.1 39.4 40.7 5.1 6.7 10.4 13.4 15.2 20.3 6.6 9.3 12.8 18.8 19.8 29 .2-2.8.4-4.7.4-6.6 0-58.1 0-116.2-.1-174.3 0-16.4-2.2-32.5-7.9-48-4-11-9.6-20.7-20.3-26.8-15-8.6-36.6-3.2-48.9 7.6-27.1 23.8-53.9 48.1-80.7 72.2-6.5 5.8-13 11.7-19.8 17.9 2.2 1.1 3.9 1.8 5.5 2.6 11.7 5.9 23.3 12 34.9 18.1zm-510.6 86c1.6-1.6 3.4-3.2 4.9-4.9 14.4-17 30.2-32.8 47.7-46.5 15.6-12.1 32-23.1 48.1-34.6 13.1-7 26.2-14 39.7-21.2-2.8-2.6-5.5-5.2-8.3-7.7-27.1-24.3-54.3-48.5-81.4-72.9-8.6-7.7-17-15.2-28.4-18.9-18-6-38.7 1.6-46.6 17.9-7.8 16.1-12.1 33.2-12.2 51-.3 62-.3 123.9-.3 185.9 0 .8.4 1.6.7 2.6 6.8-10 13.1-19.7 19.8-29.2 5.3-7.3 10.9-14.3 16.3-21.5zm178.2 140.7c16.9 1.2 32-8 33.1-26.9.8-13.9-9.5-26.4-24.5-28.5-21.7-2.9-43.5-5.8-65.3-8.6-15.7-2-29.5 7.7-32.2 22.4-3 16.4 5.9 29.6 22.6 33 6.5 1.3 13.2 1.8 19.8 2.7 17.1 2.2 34.1 4.4 46.5 5.9zm250.9.4c.8-.1 2.8-.1 4.8-.4 20.3-2.5 40.6-5.3 60.9-7.6 16.8-1.9 30-13.6 27.2-32.8-1.9-13.1-13.1-24.1-26.4-23.7-6.3.2-12.5 1.4-18.8 2.1-17.5 2.2-35 4.3-52.4 6.6-15.5 2-25 13.8-24.4 28.5.7 16.3 12.4 27.3 29.1 27.3zm-282.1 26.6c-32.6 0-59 25.8-59 57.8-.1 33.5 25.6 59.4 58.9 59.4 32.4 0 58.4-25.8 58.5-58.3 0-32.7-25.8-58.9-58.4-58.9zm317.5 0c-32.4 0-58.5 25.9-58.6 58.2-.1 32.6 25.7 58.6 57.7 59.2 32.2.7 60-26.1 59.7-59.3-.4-32.1-26.3-58.1-58.8-58.1z"/><path class="st1" d="M155 1097c-.2-1.8-.5-3.6-.5-5.4 0-85.1 0-170.3-.1-255.4 0-6.4-1.5-12.8-2.3-19.2 1 .8 2.3 1.4 3 2.4 6 8.3 11.7 16.9 18 25 15 19.2 31.2 37 50.6 52.1 15.1 11.7 31.4 21.1 48.9 28.4 18.6 7.8 38 13.2 58.1 15.3 22.6 2.3 45.3 4.4 68 5.7 13.2.7 26.6.1 39.9-.9 20.5-1.6 41.1-3.1 61.3-6.7 26.6-4.7 52.3-13.2 74.9-28.7 12.2-8.3 24.4-16.8 35.4-26.6 18.9-16.9 34.5-36.8 48.8-57.8 2-2.9 4.5-5.5 6.8-8.2-5.1 45.6-1.6 91.4-2.2 137.2-.6 45.8-.1 91.6-.1 137.4 0 1.8-.3 3.6-.5 5.4H155z"/><path class="st2" d="M665.8 817c-2.3 2.7-4.9 5.3-6.8 8.2-14.2 21-29.9 40.9-48.8 57.8-11 9.8-23.2 18.3-35.4 26.6-22.6 15.4-48.3 23.9-74.9 28.7-20.2 3.6-40.8 5-61.3 6.7-13.2 1.1-26.6 1.6-39.9.9-22.7-1.2-45.3-3.4-68-5.7-20.1-2.1-39.5-7.5-58.1-15.3-17.5-7.3-33.8-16.7-48.9-28.4-19.4-15-35.6-32.9-50.6-52.1-6.3-8.1-12-16.7-18-25-.7-1-2-1.6-3-2.4-7.5-15.2-14.5-30.6-22.7-45.4-13.6-24.6-28.2-48.6-41.9-73.2C75.4 676.8 71.4 653 72 628.6c1.3-46.4 20.2-84.4 55.4-114.4 1.4-1.2 2.9-2.1 5.3-3.9v6.7c.1 18.6 3.5 36.4 12.2 53 10.9 20.6 28.2 33.9 50 41.1 20.2 6.7 41 9 62.1 6.2 22.1-2.9 41.8-12 59.6-25 22.9-16.7 40.5-38 52.4-63.7 7.3-15.9 11.3-32.7 11.4-50.2.1-82 0-164 .1-246 0-20 14.5-32.3 33.9-29.5 11.3 1.7 21.5 12 22.7 23.5.5 4.5.4 9 .4 13.5v235.5c0 32.2 11.4 60.1 31 85.1 17.6 22.5 39.3 39.6 66 50 11 4.3 22.5 7.3 34.4 7.7 26.9.9 52.9-2.8 76.1-17.7 20.1-12.9 32-31.7 36.9-54.8 2.3-11.1 3.1-22.6 4.6-35 5.5 5 11.5 9.7 16.6 15.1 32.7 34.5 46.6 75.7 42.2 122.9-2 22.2-9.6 42.5-21.3 61.7-13.4 22-26 44.5-38.6 67-5.3 9.4-10.1 19.1-15 28.7-1.9 3.4-3.1 7.2-4.6 10.9zm-256.4-.1c.4.8.7 1.4 1.1 2 10.6 14.4 24.1 25.3 41.1 31.1 27.5 9.5 53.7 6.5 78.4-9.2 13.9-8.8 23.7-21.2 31-35.7 6-11.9 9-24.6 8.6-38-.2-9.1-6.9-15.4-15.7-15.1-8.7.2-14.7 6.9-14.8 16.6-.4 24.1-17.2 46.6-39.7 53.3-26.2 7.8-52.4-1.7-66.8-24.9-5.6-9.1-8.6-19.3-8.3-29.5 8.9-2.9 17.3-5 25.1-8.5 18.4-8.3 32.1-21.2 37.7-41.3 5.8-20.6-8.7-41.6-29.4-41.8-31.8-.3-63.7-.2-95.5 0-11.2.1-19.5 5.9-25.3 15.2-9.2 14.8-5.5 29 3 42.3 11.5 17.9 28.9 27.5 49.4 31.7 3.3.7 5 1.7 4.6 5.4-2.6 23.9-15.2 42.9-38.9 50.9-37.8 12.7-74.8-13.9-76-53.8-.3-8.9-6.5-15.4-14.9-15.6-9-.2-14.7 5.3-15.3 14.8-.7 11.7 1.4 22.9 6 33.6 11.9 27.7 32.2 46 61.6 52.4 38 8.3 68.5-4.8 93-35.9zM103.4 268.1c-5.4 7.2-11 14.2-16.2 21.5-6.7 9.5-13.1 19.2-19.8 29.2-.3-1-.7-1.8-.7-2.6 0-62 0-123.9.3-185.9.1-17.8 4.4-34.9 12.2-51 7.9-16.3 28.6-23.9 46.6-17.9 11.3 3.8 19.8 11.3 28.4 18.9 27.1 24.3 54.3 48.6 81.4 72.9 2.8 2.5 5.5 5.1 8.3 7.7-13.5 7.2-26.6 14.2-39.7 21.2-6.3-4.3-12.2-9.4-19-12.6-11.5-5.5-23.9-7.5-36.8-5.5-12.7 2-24.3 6.6-34 15.2-13.8 12.2-22 27.3-23.9 46-1.5 15.2 2.7 28.5 10 41.2.5.9 2 1.2 2.9 1.7zM614 182.1l-34.8-18.3c-1.6-.8-3.2-1.5-5.5-2.6 6.9-6.2 13.3-12.1 19.8-17.9 26.9-24.1 53.6-48.3 80.7-72.2 12.3-10.8 33.9-16.2 48.9-7.6 10.6 6.1 16.3 15.8 20.3 26.8 5.6 15.5 7.8 31.6 7.9 48 .1 58.1.1 116.2.1 174.3 0 1.9-.2 3.8-.4 6.6-6.9-10.2-13.2-19.7-19.8-29-4.9-6.9-10.1-13.5-15.2-20.3.3-.8.5-1.6.9-2.3 8.7-14 12.8-29 10.2-45.6-3.5-22.2-14.2-39.3-34.3-50.2-10.5-5.7-21.6-9.1-33.3-8.8-17.4.7-32.7 7.3-45.5 19.1z"/><path class="st3" d="M281.6 408.8c-12.4-1.6-29.4-3.7-46.4-5.9-6.6-.8-13.3-1.3-19.8-2.7-16.8-3.4-25.6-16.6-22.6-33 2.7-14.7 16.5-24.4 32.2-22.4 21.8 2.8 43.5 5.6 65.3 8.6 15 2 25.3 14.6 24.5 28.5-1.3 18.9-16.3 28.1-33.2 26.9zM532.5 409.2c-16.6.1-28.4-11-29.1-27.2-.6-14.7 8.8-26.5 24.4-28.5 17.5-2.3 35-4.4 52.4-6.6 6.3-.8 12.5-2 18.8-2.1 13.3-.4 24.5 10.6 26.4 23.7 2.8 19.2-10.4 30.9-27.2 32.8-20.3 2.3-40.6 5.1-60.9 7.6-2 .1-4 .2-4.8.3z"/><path class="st4" d="M250.4 435.8c32.6 0 58.4 26.1 58.3 59-.1 32.4-26 58.3-58.5 58.3-33.3 0-58.9-25.9-58.9-59.4.2-32.1 26.6-57.9 59.1-57.9zm-8.4 21.3c-6.1-4.8-12.9-5.5-19.4-1.5-6.6 4.1-8.8 10.4-6.7 18.1.3.9.1 2 .2 2.9-.9 2.7-2 5.3-2.7 8-3.9 15.7.2 29.2 12.7 39.3 12.8 10.4 27.6 11.6 42.1 4 14.1-7.4 20.6-20 19.9-35.8-1.1-23.1-23.3-40-46.1-35zM567.9 435.8c32.5 0 58.5 26 58.8 58.2.3 33.2-27.6 59.9-59.7 59.3-32-.7-57.8-26.6-57.7-59.2.1-32.4 26.2-58.3 58.6-58.3zM539.1 457c-.4.3-.8.7-1.2 1-5.4 4.5-6.7 12.4-2.9 17.9-.1.3-.2.6-.3 1-.9 1.4-2 2.7-2.5 4.2-6.4 17.6.9 37.7 16.9 46.7 15.5 8.7 36.7 4.9 47.7-8.5 12.3-15 12.3-35.3-.2-49.9-9-10.6-25.4-15.8-36.8-11.6-.3.1-.5.1-.8.2-4.1-6.4-13.5-6.9-19.9-1z"/><path class="st1" d="M614 182.1c12.9-11.8 28.1-18.4 45.5-18.8 11.7-.3 22.8 3.1 33.3 8.8 20.1 10.9 30.8 28 34.3 50.2 2.6 16.6-1.5 31.6-10.2 45.6-.4.7-.6 1.5-.9 2.3-13.1-13.6-25.8-27.6-39.4-40.7-18.3-17.7-39-32.4-60.6-45.8-.8-.5-1.4-1.1-2-1.6zM103.4 268.1c-1-.5-2.4-.8-2.9-1.7-7.4-12.7-11.6-26-10-41.2 1.9-18.7 10-33.8 23.9-46 9.7-8.6 21.3-13.2 34-15.2 12.9-2 25.3 0 36.8 5.5 6.8 3.2 12.7 8.3 19 12.6-16.1 11.5-32.5 22.5-48.1 34.6-17.6 13.7-33.3 29.5-47.7 46.5-1.6 1.7-3.3 3.3-5 4.9z"/><path class="st5" d="M409.4 816.9c-24.5 31.1-55 44.3-93.1 35.9-29.4-6.5-49.8-24.8-61.6-52.4-4.6-10.7-6.7-21.9-6-33.6.6-9.5 6.3-15 15.3-14.8 8.3.2 14.6 6.7 14.9 15.6 1.3 40 38.2 66.6 76 53.8 23.7-8 36.3-27 38.9-50.9.4-3.7-1.2-4.8-4.6-5.4-20.5-4.2-37.9-13.8-49.4-31.7-8.5-13.2-12.2-27.5-3-42.3 5.8-9.4 14.1-15.2 25.3-15.2 31.8-.2 63.7-.3 95.5 0 20.7.2 35.1 21.1 29.4 41.8-5.6 20.1-19.3 33-37.7 41.3-7.8 3.5-16.3 5.6-25.1 8.5-.3 10.2 2.7 20.5 8.3 29.5 14.4 23.2 40.6 32.6 66.8 24.9 22.5-6.7 39.3-29.2 39.7-53.3.2-9.7 6.2-16.4 14.8-16.6 8.8-.2 15.5 6 15.7 15.1.4 13.4-2.7 26.1-8.6 38-7.3 14.5-17.1 26.9-31 35.7-24.7 15.7-50.9 18.6-78.4 9.2-17-5.9-30.5-16.7-41.1-31.1-.3-.6-.5-1.2-1-2zm.3-109.9c13.6 0 27.3.1 40.9 0 6.3 0 10-2.8 11.2-7.9 1.7-7.8-3.1-13.1-12.4-13.1-26.6-.1-53.2 0-79.9 0-2 0-4 .3-5.9 1-4.4 1.7-6.3 5.4-6.6 9.7-.3 4.5 2.4 7.6 6.3 9.2 2.1.9 4.5 1.1 6.8 1.1 13.3.1 26.5.1 39.6 0zM242 457.1c22.8-5 45 11.8 46.1 35 .7 15.8-5.8 28.4-19.9 35.8-14.5 7.6-29.2 6.4-42.1-4-12.5-10.1-16.6-23.6-12.7-39.3.7-2.7 1.8-5.3 2.7-8l3.6 3.3c7.4 7.4 19 6.3 24.7-2.5 4.1-6.2 3.4-12.2-2.4-20.3z"/><path class="st0" d="M559.9 457.8c11.3-4.2 27.7 1 36.8 11.6 12.4 14.6 12.5 34.9.2 49.9-11 13.4-32.2 17.2-47.7 8.5-16-8.9-23.3-29-16.9-46.7.6-1.5 1.7-2.8 2.5-4.2.9 1 1.7 2.1 2.6 3 6.8 6.5 16.1 6.5 22.9.3 5.6-5.2 5.9-17.7-.4-22.4z"/><path class="st3" d="M559.1 458c-6.5-4.2-13.3-1.1-20-1 6.4-5.9 15.8-5.4 20 1zM538 458c-1 6-1.9 12-2.9 17.9-3.8-5.5-2.5-13.4 2.9-17.9z"/><path d="M409.7 707.1c-13.1 0-26.3.1-39.4 0-2.3 0-4.7-.2-6.8-1.1-4-1.6-6.6-4.7-6.3-9.2.3-4.4 2.2-8.1 6.6-9.7 1.8-.7 3.9-.9 5.9-1 26.6-.1 53.2-.1 79.9 0 9.3 0 14.1 5.3 12.4 13.1-1.1 5.1-4.8 7.8-11.2 7.9-13.8 0-27.4-.1-41.1 0z" fill="#5b697e"/></svg>