<svg xmlns="http://www.w3.org/2000/svg" viewBox="0 0 2880 600"><filter id="b"><feGaussianBlur stdDeviation="12" /></filter><path fill="#e4e2de" d="M0 0h2880v596H0z"/><g filter="url(#b)" transform="translate(5.6 5.6) scale(11.25)" fill-opacity=".5"><path fill="#f6f6f1" d="M174 13h63v40h-63z"/><ellipse fill="#fafaf5" rx="1" ry="1" transform="matrix(-53.77392 -81.36133 11.47675 -7.5853 12.8 12.7)"/><ellipse fill="#cbcac8" rx="1" ry="1" transform="matrix(-22.40594 2.9498 -4.81727 -36.59077 139.6 0)"/><path fill="#cfcdc9" d="M85 68l19-32L32 4z"/><path fill="#d7d5d1" d="M213 17l-48 24 46-4z"/><path fill="#f5f1eb" d="M65.3 20l20-32.5L97 15 69.7 40.3z"/><ellipse fill="#fbfbf8" rx="1" ry="1" transform="rotate(-27.4 189 -322.5) scale(3.0769 45.53812)"/><path fill="#fbf9f6" d="M230 21l-17.6-1.3-.6 25 50.7-5z"/><ellipse fill="#cecfcf" rx="1" ry="1" transform="matrix(4.1521 -2.26733 20.79607 38.08336 162.6 14.7)"/><path fill="#cdcbc7" d="M67.3 34.2L60.5.7 43.6 15.4l-4.7 13.4z"/><path fill="#fff" d="M164.3 4.8l10.3-3.7 5.1 14-10.3 3.8z"/><path fill="#c8c8c5" d="M99 21l10 12-22 25z"/><ellipse fill="#d7d6d1" rx="1" ry="1" transform="matrix(-13.72098 4.29026 -13.60918 -43.52446 144.1 34.8)"/><ellipse fill="#d4cdca" cx="249" cy="15" rx="5" ry="19"/><path fill="#cbc6c3" d="M256 51l-20.9-2 .9-8 20.9 2.2z"/><path fill="#e3d6d3" d="M-16 28.8L6.1 66.4l17.3-52.7-4.8 12.9z"/><path fill="#fbfefe" d="M-.1 30L-18 4.6.1-8 18 17.4z"/><path fill="#f0efea" d="M107 24h23v29h-23z"/><ellipse fill="#d0cfcd" rx="1" ry="1" transform="matrix(-1.4321 9.5839 -40.2804 -6.01902 125.7 3)"/><path fill="#c4c7c7" d="M229 4l4 8 10-28z"/><path fill="#dcd6d1" d="M87-2.5l-42-12 42.2 31.3-33.2-4z"/><ellipse fill="#e4e9ea" cx="196" cy="3" rx="27" ry="11"/></g></svg>