<svg xmlns="http://www.w3.org/2000/svg" viewBox="0 0 2880 600"><filter id="b"><feGaussianBlur stdDeviation="12" /></filter><path fill="#e7e7e6" d="M0 0h2880v596H0z"/><g filter="url(#b)" transform="translate(5.6 5.6) scale(11.25)" fill-opacity=".5"><ellipse fill="#bdbebe" cx="136" cy="47" rx="63" ry="19"/><ellipse fill="#f7f8f7" rx="1" ry="1" transform="matrix(16.68739 -26.39683 85.66414 54.15462 223.5 20.7)"/><ellipse fill="#feffff" rx="1" ry="1" transform="rotate(147.9 8.9 6) scale(97.24057 21.74918)"/><path fill="#fcfdfc" d="M63 25.3L15.8 66.5 79 53.9 64.6 24.6z"/><ellipse fill="#ddd8d7" rx="1" ry="1" transform="matrix(3.87841 -3.89197 43.10843 42.95821 241.4 34.5)"/><path fill="#fff" d="M143 50h25v3h-25z"/><path fill="#cfcecf" d="M165 48l20-27 26 47z"/><path fill="#ddd9d4" d="M39.4 28.3L-3.5 45.6 16 68l33-32.8z"/><path fill="#f8f3f2" d="M168.3 36.1L154 32.2l12.5-5.2 21.1-3z"/><path fill="#eff0f0" d="M56 33l34-49 15 52z"/><path fill="#dcdad8" d="M89 26l26-19 50 22z"/><path fill="#f8faf9" d="M215.9 68.4l-25.3-33.5L216 15.6l25.3 33.5z"/><path fill="#cccbcc" d="M91.8 36.8l74.2-6.3L84 68 70.4 36.4z"/><path fill="#fafdfc" d="M190.6-9.8l-2.5 23.9-40.7-4.3 2.5-23.9z"/><path fill="#e2dcd9" d="M197 12.6l-51 17.2 57.9-9 1-9.6z"/><path fill="#f8faf9" d="M262 41.1L209.3-3.2l16.7-20 52.9 44.4z"/><path fill="#cdcccc" d="M122 25L97 61l86-21z"/><path fill="#cfcecd" d="M114 0h4v27h-4z"/><path fill="#f2f3f3" d="M104 34.5l-10.3 1.1-3-3.6 34.1-7.5z"/><path fill="#d5d5d5" d="M188.8 28.3l-13.1 3.3L205.4 68l-11.3-32.1z"/><path fill="#f3f6f4" d="M153.9 48.5l-32.6 11 73.8 1.7-27.3-9z"/><path fill="#f1f2f3" d="M87-5.4l14.6 20.3L131.9-14l113 19.3z"/></g></svg>