<svg xmlns="http://www.w3.org/2000/svg" viewBox="0 0 2880 600"><filter id="b"><feGaussianBlur stdDeviation="12" /></filter><path fill="#e4e3e0" d="M0 0h2880v596H0z"/><g filter="url(#b)" transform="translate(5.6 5.6) scale(11.25)" fill-opacity=".5"><ellipse fill="#fff" rx="1" ry="1" transform="rotate(97.5 80.7 70.8) scale(35.44837 32.66357)"/><ellipse fill="#c2c1c1" rx="1" ry="1" transform="matrix(15.55048 -3.16378 6.2194 30.5693 63 30.4)"/><ellipse fill="#fff" rx="1" ry="1" transform="matrix(-1.17964 17.95655 -25.98713 -1.7072 241.2 10.8)"/><ellipse fill="#f8faf9" rx="1" ry="1" transform="matrix(6.63432 -6.56753 39.17658 39.57497 89 5.2)"/><path fill="#d3d4d0" d="M4 83.5l-46.8-96.2L3.9-35.5l47 96.2z"/><ellipse fill="#d8d4d2" cx="206" cy="52" rx="42" ry="28"/><path fill="#f0f5f5" d="M55-16L28 0l3 43z"/><path fill="#f7f2ed" d="M80.3 24.9l1.1 22 19-13-29.2-45.4z"/><path fill="#d5ceca" d="M208 27.8L222-16l-21.5 27.6-4.3 2.8z"/><path fill="#f8eeeb" d="M148 37.4L168.7 68l-13.4-50.1-53 32.4z"/><path fill="#c6c4c3" d="M104.7 6.3l-1.2-10 21.8-2.6 1.2 10z"/><path fill="#fdffff" d="M263.4 39.7l-1.9 22-15-1.4 2-22z"/><path fill="#eadad2" d="M104.1 11l9.7-8.7 24 26.7-9.6 8.7z"/><path fill="#cad2d8" d="M224 71l-32.8-21.2L202.1 33l32.7 21.2z"/><path fill="#d1d1ce" d="M73.2 46.1L9.8 55-6.3 68l82.9-56.9z"/><path fill="#d7d1d6" d="M114 44h36v9h-36z"/><path fill="#ecf1f9" d="M133.6 34.2l5.9-18.4 8 23.4-34.2 8.8z"/><path fill="#e0d7d2" d="M145 60l-2-42 9 11z"/><ellipse fill="#eee6e2" rx="1" ry="1" transform="matrix(5.56258 5.37172 -10.59765 10.97419 230.4 35.7)"/><path fill="#f4ece3" d="M183.8 49.7l-14-19.5-38 37.8 54.6-45z"/><path fill="#dcd2cd" d="M220.8 68l8.4-15.3 10.2-19.8 17.5 1.1z"/><path fill="#e5dfd6" d="M100.8 24.1L88.2 68 112 43.2l1-11.2z"/></g></svg>