<svg xmlns="http://www.w3.org/2000/svg" viewBox="0 0 840 400"><filter id="b"><feGaussianBlur stdDeviation="12" /></filter><path fill="#a394a8" d="M0 0h840v397H0z"/><g filter="url(#b)" transform="translate(1.6 1.6) scale(3.28125)" fill-opacity=".5"><ellipse fill="#00000e" rx="1" ry="1" transform="matrix(-76.85833 -15.77675 8.88988 -43.30814 172 80.7)"/><path fill="#fff3fb" d="M2 136L-16-6l230 5z"/><ellipse fill="#1a0232" rx="1" ry="1" transform="matrix(16.41493 -24.23427 25.9034 17.54552 119.4 65.3)"/><ellipse fill="#fff" rx="1" ry="1" transform="matrix(254.77632 10.6783 -1.35665 32.36867 229.6 0)"/><ellipse fill="#fff" rx="1" ry="1" transform="matrix(-47.24522 1.40996 -.87703 -29.38762 73.4 120)"/><ellipse fill="#2a0e42" cx="193" cy="69" rx="40" ry="40"/><path fill="#fff" d="M236 32h20v52h-20z"/><ellipse fill="#836e7e" rx="1" ry="1" transform="matrix(35.5682 7.00478 -2.04692 10.39367 8.7 30)"/><ellipse fill="#4f3b5d" rx="1" ry="1" transform="matrix(-27.08716 -.9459 1.28939 -36.9233 236 118.1)"/><ellipse fill="#fff2fa" rx="1" ry="1" transform="rotate(-116.3 118.8 -60.1) scale(35.1973 14.04252)"/><path fill="#756f92" d="M123.1 37.9L172 22.6 203.1 35l-72.2 22.7z"/><ellipse fill="#40112a" rx="1" ry="1" transform="matrix(4.20543 -6.0941 37.69476 26.01248 249.6 0)"/><ellipse fill="#eedce6" rx="1" ry="1" transform="matrix(-19.47185 8.58811 -45.6578 -103.5201 76 97)"/><ellipse fill="#a495ac" rx="1" ry="1" transform="rotate(114 37.3 109.6) scale(8.2037 52.48008)"/><path fill="#20052f" d="M178.7 110.6l-44.4-48-39.2-1-3.6 11z"/><path fill="#826874" d="M13.4 36.8l103.5 16.6-15.8-22.2-12.5 13.2z"/><path fill="#56455f" d="M262.5 54.7l-19.6 4.8-15.2 16.2-83.9-14z"/><ellipse fill="#342f48" rx="1" ry="1" transform="matrix(.32976 -1.73829 46.64695 8.8492 0 23.4)"/><path fill="#f3e1ed" d="M144.9 38l34 6L65.7-1.6 13.1 12.8z"/><path fill="#e5d4e1" d="M230.3 77.7l40.5-62.5-52.5 20.9L271 93.3z"/><path fill="#faeaf6" d="M108 99l-124 9 98 28z"/><path fill="#1c0125" d="M230 84.2l-39.4-12.7-50 23.6 83.7-7.4z"/></g></svg>